<?xml version="1.0" encoding="utf-8" standalone="no"?>
<!DOCTYPE svg PUBLIC "-//W3C//DTD SVG 1.1//EN"
  "http://www.w3.org/Graphics/SVG/1.1/DTD/svg11.dtd">
<svg xmlns:xlink="http://www.w3.org/1999/xlink" width="460.8pt" height="345.6pt" viewBox="0 0 460.8 345.6" xmlns="http://www.w3.org/2000/svg" version="1.1">
 <metadata>
  <rdf:RDF xmlns:dc="http://purl.org/dc/elements/1.1/" xmlns:cc="http://creativecommons.org/ns#" xmlns:rdf="http://www.w3.org/1999/02/22-rdf-syntax-ns#">
   <cc:Work>
    <dc:type rdf:resource="http://purl.org/dc/dcmitype/StillImage"/>
    <dc:date>2026-09-04T17:48:53.269655</dc:date>
    <dc:format>image/svg+xml</dc:format>
    <dc:creator>
     <cc:Agent>
      <dc:title>Matplotlib v3.10.6, https://matplotlib.org/</dc:title>
     </cc:Agent>
    </dc:creator>
   </cc:Work>
  </rdf:RDF>
 </metadata>
 <defs>
  <style type="text/css">*{stroke-linejoin: round; stroke-linecap: butt}</style>
 </defs>
 <g id="figure_1">
  <g id="patch_1">
   <path d="M 0 345.6
L 460.8 345.6
L 460.8 0
L 0 0
z
" style="fill: #ffffff"/>
  </g>
  <g id="axes_1">
   <g id="patch_2">
    <path d="M 57.6 307.584
L 414.72 307.584
L 414.72 41.472
L 57.6 41.472
z
" style="fill: #ffffff"/>
   </g>
   <g id="matplotlib.axis_1">
    <g id="xtick_1">
     <g id="line2d_1">
      <defs>
       <path id="m38f2e27ba1" d="M 0 0
L 0 3.5
" style="stroke: #000000; stroke-width: 0.8"/>
      </defs>
      <g>
       <use xlink:href="#m38f2e27ba1" x="57.6" y="307.584" style="stroke: #000000; stroke-width: 0.8"/>
      </g>
     </g>
     <g id="text_1">
      <!-- $\mathdefault{10^{-5}}$ -->
      <g transform="translate(42.098302 325.391327) scale(0.16 -0.16)">
       <defs>
        <path id="NimbusRomNo9L-Regu-31" d="M 1862 4339
L 710 3757
L 710 3667
C 787 3699 858 3725 883 3738
C 998 3783 1107 3808 1171 3808
C 1306 3808 1363 3711 1363 3505
L 1363 592
C 1363 379 1312 232 1210 173
C 1114 116 1024 96 755 96
L 755 0
L 2522 0
L 2522 96
C 2016 96 1914 160 1914 470
L 1914 4327
L 1862 4339
z
" transform="scale(0.015625)"/>
        <path id="NimbusRomNo9L-Regu-30" d="M 1626 4352
C 1274 4352 1005 4244 768 4020
C 397 3661 154 2925 154 2176
C 154 1479 365 730 666 372
C 902 90 1229 -64 1600 -64
C 1926 -64 2202 45 2432 269
C 2803 621 3046 1364 3046 2138
C 3046 3450 2464 4352 1626 4352
z
M 1606 4186
C 2144 4186 2432 3463 2432 2125
C 2432 788 2150 103 1600 103
C 1050 103 768 788 768 2119
C 768 3476 1056 4186 1606 4186
z
" transform="scale(0.015625)"/>
        <path id="CMSY10-0" d="M 4218 1472
C 4326 1472 4442 1472 4442 1600
C 4442 1728 4326 1728 4218 1728
L 755 1728
C 646 1728 531 1728 531 1600
C 531 1472 646 1472 755 1472
L 4218 1472
z
" transform="scale(0.015625)"/>
        <path id="NimbusRomNo9L-Regu-35" d="M 1158 3776
L 2413 3776
C 2515 3776 2541 3789 2560 3834
L 2803 4403
L 2746 4448
C 2650 4314 2586 4282 2451 4282
L 1114 4282
L 416 2759
C 410 2746 410 2740 410 2727
C 410 2695 435 2676 486 2676
C 691 2676 947 2631 1210 2547
C 1946 2309 2285 1910 2285 1274
C 2285 656 1894 173 1395 173
C 1267 173 1158 218 966 360
C 762 508 614 572 480 572
C 294 572 205 495 205 334
C 205 90 506 -64 986 -64
C 1523 -64 1984 110 2304 438
C 2598 728 2733 1094 2733 1583
C 2733 2046 2611 2342 2291 2663
C 2010 2947 1645 3094 890 3229
L 1158 3776
z
" transform="scale(0.015625)"/>
       </defs>
       <use xlink:href="#NimbusRomNo9L-Regu-31" transform="scale(0.996264)"/>
       <use xlink:href="#NimbusRomNo9L-Regu-30" transform="translate(49.8132 0) scale(0.996264)"/>
       <use xlink:href="#CMSY10-0" transform="translate(99.626401 36.163231) scale(0.737241)"/>
       <use xlink:href="#NimbusRomNo9L-Regu-35" transform="translate(156.909271 36.163231) scale(0.737241)"/>
      </g>
     </g>
    </g>
    <g id="xtick_2">
     <g id="line2d_2">
      <g>
       <use xlink:href="#m38f2e27ba1" x="136.96" y="307.584" style="stroke: #000000; stroke-width: 0.8"/>
      </g>
     </g>
     <g id="text_2">
      <!-- $\mathdefault{10^{-3}}$ -->
      <g transform="translate(121.458302 325.391327) scale(0.16 -0.16)">
       <defs>
        <path id="NimbusRomNo9L-Regu-33" d="M 979 2138
C 1357 2138 1504 2125 1658 2068
C 2054 1927 2304 1562 2304 1120
C 2304 583 1939 167 1466 167
C 1293 167 1165 212 928 365
C 736 480 627 525 518 525
C 371 525 275 436 275 301
C 275 77 550 -64 998 -64
C 1491 -64 1997 103 2298 365
C 2598 628 2765 999 2765 1428
C 2765 1754 2662 2055 2477 2253
C 2349 2394 2227 2471 1946 2592
C 2387 2893 2547 3130 2547 3476
C 2547 3994 2138 4352 1549 4352
C 1229 4352 947 4244 717 4039
C 525 3866 429 3699 288 3315
L 384 3290
C 646 3757 934 3968 1338 3968
C 1754 3968 2042 3687 2042 3284
C 2042 3053 1946 2823 1786 2663
C 1594 2471 1414 2375 979 2221
L 979 2138
z
" transform="scale(0.015625)"/>
       </defs>
       <use xlink:href="#NimbusRomNo9L-Regu-31" transform="scale(0.996264)"/>
       <use xlink:href="#NimbusRomNo9L-Regu-30" transform="translate(49.8132 0) scale(0.996264)"/>
       <use xlink:href="#CMSY10-0" transform="translate(99.626401 36.163231) scale(0.737241)"/>
       <use xlink:href="#NimbusRomNo9L-Regu-33" transform="translate(156.909271 36.163231) scale(0.737241)"/>
      </g>
     </g>
    </g>
    <g id="xtick_3">
     <g id="line2d_3">
      <g>
       <use xlink:href="#m38f2e27ba1" x="216.32" y="307.584" style="stroke: #000000; stroke-width: 0.8"/>
      </g>
     </g>
     <g id="text_3">
      <!-- $\mathdefault{10^{-1}}$ -->
      <g transform="translate(200.818302 325.391327) scale(0.16 -0.16)">
       <use xlink:href="#NimbusRomNo9L-Regu-31" transform="scale(0.996264)"/>
       <use xlink:href="#NimbusRomNo9L-Regu-30" transform="translate(49.8132 0) scale(0.996264)"/>
       <use xlink:href="#CMSY10-0" transform="translate(99.626401 36.163231) scale(0.737241)"/>
       <use xlink:href="#NimbusRomNo9L-Regu-31" transform="translate(156.909271 36.163231) scale(0.737241)"/>
      </g>
     </g>
    </g>
    <g id="xtick_4">
     <g id="line2d_4">
      <g>
       <use xlink:href="#m38f2e27ba1" x="295.68" y="307.584" style="stroke: #000000; stroke-width: 0.8"/>
      </g>
     </g>
     <g id="text_4">
      <!-- $\mathdefault{10^{1}}$ -->
      <g transform="translate(284.760925 325.391327) scale(0.16 -0.16)">
       <use xlink:href="#NimbusRomNo9L-Regu-31" transform="scale(0.996264)"/>
       <use xlink:href="#NimbusRomNo9L-Regu-30" transform="translate(49.8132 0) scale(0.996264)"/>
       <use xlink:href="#NimbusRomNo9L-Regu-31" transform="translate(99.626401 36.163231) scale(0.737241)"/>
      </g>
     </g>
    </g>
    <g id="xtick_5">
     <g id="line2d_5">
      <g>
       <use xlink:href="#m38f2e27ba1" x="375.04" y="307.584" style="stroke: #000000; stroke-width: 0.8"/>
      </g>
     </g>
     <g id="text_5">
      <!-- $\mathdefault{10^{3}}$ -->
      <g transform="translate(364.120925 325.391327) scale(0.16 -0.16)">
       <use xlink:href="#NimbusRomNo9L-Regu-31" transform="scale(0.996264)"/>
       <use xlink:href="#NimbusRomNo9L-Regu-30" transform="translate(49.8132 0) scale(0.996264)"/>
       <use xlink:href="#NimbusRomNo9L-Regu-33" transform="translate(99.626401 36.163231) scale(0.737241)"/>
      </g>
     </g>
    </g>
    <g id="text_6">
     <!-- 90% cred. comoving volume (10⁶ Mpc³) -->
     <g transform="translate(230.182416 340.947737) scale(0.12 -0.12)">
      <defs>
       <path id="NimbusRomNo9L-Regu-39" d="M 378 -123
C 1094 -40 1446 82 1882 396
C 2547 882 2938 1676 2938 2539
C 2938 3593 2349 4339 1523 4339
C 762 4339 192 3694 192 2832
C 192 2053 653 1536 1344 1536
C 1696 1536 1965 1638 2304 1900
C 2042 856 1331 172 358 5
L 378 -123
z
M 2317 2290
C 2317 2162 2291 2104 2221 2047
C 2042 1894 1805 1811 1574 1811
C 1088 1811 781 2290 781 3050
C 781 3413 883 3796 1018 3963
C 1126 4090 1286 4160 1472 4160
C 2029 4160 2317 3611 2317 2539
L 2317 2290
z
" transform="scale(0.015625)"/>
      </defs>
      <use xlink:href="#NimbusRomNo9L-Regu-39" transform="scale(0.996264)"/>
      <use xlink:href="#NimbusRomNo9L-Regu-30" transform="translate(49.8132 0) scale(0.996264)"/>
     </g>
    </g>
   </g>
   <g id="matplotlib.axis_2">
    <g id="ytick_1">
     <g id="line2d_6">
      <defs>
       <path id="ma44c32089f" d="M 0 0
L -3.5 0
" style="stroke: #000000; stroke-width: 0.8"/>
      </defs>
      <g>
       <use xlink:href="#ma44c32089f" x="57.6" y="307.584" style="stroke: #000000; stroke-width: 0.8"/>
      </g>
     </g>
     <g id="text_7">
      <!-- $\mathdefault{0.00}$ -->
      <g transform="translate(22.274382 312.987664) scale(0.16 -0.16)">
       <defs>
        <path id="CMMI10-3a" d="M 1229 338
C 1229 522 1075 675 890 675
C 704 675 550 522 550 338
C 550 153 704 0 890 0
C 1075 0 1229 153 1229 338
z
" transform="scale(0.015625)"/>
       </defs>
       <use xlink:href="#NimbusRomNo9L-Regu-30" transform="scale(0.996264)"/>
       <use xlink:href="#CMMI10-3a" transform="translate(49.8132 0) scale(0.996264)"/>
       <use xlink:href="#NimbusRomNo9L-Regu-30" transform="translate(77.408707 0) scale(0.996264)"/>
       <use xlink:href="#NimbusRomNo9L-Regu-30" transform="translate(127.221908 0) scale(0.996264)"/>
      </g>
     </g>
    </g>
    <g id="ytick_2">
     <g id="line2d_7">
      <g>
       <use xlink:href="#ma44c32089f" x="57.6" y="241.056" style="stroke: #000000; stroke-width: 0.8"/>
      </g>
     </g>
     <g id="text_8">
      <!-- $\mathdefault{0.25}$ -->
      <g transform="translate(22.274382 246.459664) scale(0.16 -0.16)">
       <defs>
        <path id="NimbusRomNo9L-Regu-32" d="M 3040 875
L 2957 907
C 2720 544 2637 486 2349 486
L 819 486
L 1894 1609
C 2464 2202 2714 2687 2714 3185
C 2714 3823 2195 4313 1530 4313
C 1178 4313 845 4173 608 3918
C 403 3700 307 3496 198 3043
L 333 3011
C 589 3636 819 3840 1261 3840
C 1798 3840 2163 3476 2163 2940
C 2163 2443 1869 1850 1331 1282
L 192 77
L 192 0
L 2688 0
L 3040 875
z
" transform="scale(0.015625)"/>
       </defs>
       <use xlink:href="#NimbusRomNo9L-Regu-30" transform="scale(0.996264)"/>
       <use xlink:href="#CMMI10-3a" transform="translate(49.8132 0) scale(0.996264)"/>
       <use xlink:href="#NimbusRomNo9L-Regu-32" transform="translate(77.408707 0) scale(0.996264)"/>
       <use xlink:href="#NimbusRomNo9L-Regu-35" transform="translate(127.221908 0) scale(0.996264)"/>
      </g>
     </g>
    </g>
    <g id="ytick_3">
     <g id="line2d_8">
      <g>
       <use xlink:href="#ma44c32089f" x="57.6" y="174.528" style="stroke: #000000; stroke-width: 0.8"/>
      </g>
     </g>
     <g id="text_9">
      <!-- $\mathdefault{0.50}$ -->
      <g transform="translate(22.274382 179.931664) scale(0.16 -0.16)">
       <use xlink:href="#NimbusRomNo9L-Regu-30" transform="scale(0.996264)"/>
       <use xlink:href="#CMMI10-3a" transform="translate(49.8132 0) scale(0.996264)"/>
       <use xlink:href="#NimbusRomNo9L-Regu-35" transform="translate(77.408707 0) scale(0.996264)"/>
       <use xlink:href="#NimbusRomNo9L-Regu-30" transform="translate(127.221908 0) scale(0.996264)"/>
      </g>
     </g>
    </g>
    <g id="ytick_4">
     <g id="line2d_9">
      <g>
       <use xlink:href="#ma44c32089f" x="57.6" y="108" style="stroke: #000000; stroke-width: 0.8"/>
      </g>
     </g>
     <g id="text_10">
      <!-- $\mathdefault{0.75}$ -->
      <g transform="translate(22.274382 113.403664) scale(0.16 -0.16)">
       <defs>
        <path id="NimbusRomNo9L-Regu-37" d="M 2874 4250
L 506 4250
L 128 3310
L 237 3258
C 512 3693 627 3776 979 3776
L 2368 3776
L 1101 -32
L 1517 -32
L 2874 4148
L 2874 4250
z
" transform="scale(0.015625)"/>
       </defs>
       <use xlink:href="#NimbusRomNo9L-Regu-30" transform="scale(0.996264)"/>
       <use xlink:href="#CMMI10-3a" transform="translate(49.8132 0) scale(0.996264)"/>
       <use xlink:href="#NimbusRomNo9L-Regu-37" transform="translate(77.408707 0) scale(0.996264)"/>
       <use xlink:href="#NimbusRomNo9L-Regu-35" transform="translate(127.221908 0) scale(0.996264)"/>
      </g>
     </g>
    </g>
    <g id="ytick_5">
     <g id="line2d_10">
      <g>
       <use xlink:href="#ma44c32089f" x="57.6" y="41.472" style="stroke: #000000; stroke-width: 0.8"/>
      </g>
     </g>
     <g id="text_11">
      <!-- $\mathdefault{1.00}$ -->
      <g transform="translate(22.274382 46.875664) scale(0.16 -0.16)">
       <use xlink:href="#NimbusRomNo9L-Regu-31" transform="scale(0.996264)"/>
       <use xlink:href="#CMMI10-3a" transform="translate(49.8132 0) scale(0.996264)"/>
       <use xlink:href="#NimbusRomNo9L-Regu-30" transform="translate(77.408707 0) scale(0.996264)"/>
       <use xlink:href="#NimbusRomNo9L-Regu-30" transform="translate(127.221908 0) scale(0.996264)"/>
      </g>
     </g>
    </g>
    <g id="text_12">
     <!-- Cumulative fraction of events -->
     <g transform="translate(15.686187 245.271995) rotate(-90) scale(0.12 -0.12)">
      <defs>
       <path id="NimbusRomNo9L-Regu-43" d="M 3968 2906
L 3910 4352
L 3776 4352
C 3738 4218 3635 4141 3507 4141
C 3450 4141 3354 4160 3258 4199
C 2944 4301 2624 4352 2323 4352
C 1798 4352 1267 4154 870 3802
C 422 3405 179 2810 179 2106
C 179 1511 371 960 698 596
C 1082 180 1670 -64 2304 -64
C 3027 -64 3661 231 4051 749
L 3936 864
C 3462 410 3040 218 2509 218
C 2106 218 1747 346 1472 589
C 1120 903 922 1479 922 2189
C 922 3348 1517 4096 2445 4096
C 2810 4096 3142 3962 3398 3706
C 3603 3501 3699 3322 3821 2906
L 3968 2906
z
" transform="scale(0.015625)"/>
       <path id="NimbusRomNo9L-Regu-75" d="M 3066 320
L 3034 320
C 2739 320 2669 390 2669 685
L 2669 2880
L 1658 2880
L 1658 2758
C 2054 2758 2131 2694 2131 2375
L 2131 875
C 2131 697 2099 607 2010 537
C 1837 397 1638 320 1446 320
C 1197 320 992 537 992 805
L 992 2880
L 58 2880
L 58 2778
C 365 2778 454 2682 454 2387
L 454 770
C 454 263 762 -64 1229 -64
C 1466 -64 1715 38 1888 211
L 2163 486
L 2163 -45
L 2189 -58
C 2509 70 2739 141 3066 230
L 3066 320
z
" transform="scale(0.015625)"/>
       <path id="NimbusRomNo9L-Regu-6d" d="M 122 2547
C 205 2566 256 2573 326 2573
C 493 2573 550 2470 550 2162
L 550 539
C 550 192 461 96 102 96
L 102 0
L 1523 0
L 1523 96
C 1184 96 1088 166 1088 418
L 1088 2234
C 1088 2246 1139 2310 1184 2355
C 1344 2502 1619 2611 1843 2611
C 2125 2611 2266 2385 2266 1932
L 2266 528
C 2266 167 2195 96 1830 96
L 1830 0
L 3264 0
L 3264 96
C 2899 96 2803 205 2803 603
L 2803 2221
C 2995 2496 3206 2611 3501 2611
C 3866 2611 3981 2438 3981 1907
L 3981 557
C 3981 192 3930 141 3558 96
L 3558 0
L 4960 0
L 4960 96
L 4794 115
C 4602 115 4518 230 4518 480
L 4518 1802
C 4518 2559 4269 2944 3776 2944
C 3405 2944 3078 2778 2733 2407
C 2618 2771 2400 2944 2054 2944
C 1773 2944 1594 2854 1062 2451
L 1062 2931
L 1018 2944
C 691 2822 474 2752 122 2656
L 122 2547
z
" transform="scale(0.015625)"/>
       <path id="NimbusRomNo9L-Regu-6c" d="M 122 4000
L 160 4000
C 230 4000 307 4000 358 4000
C 563 4000 627 3910 627 3610
L 627 557
C 627 211 538 128 134 96
L 134 0
L 1645 0
L 1645 109
C 1242 109 1165 173 1165 528
L 1165 4371
L 1139 4384
C 806 4275 563 4211 122 4103
L 122 4000
z
" transform="scale(0.015625)"/>
       <path id="NimbusRomNo9L-Regu-61" d="M 2829 423
C 2720 333 2643 301 2547 301
C 2400 301 2355 390 2355 672
L 2355 1920
C 2355 2253 2323 2438 2227 2592
C 2086 2822 1811 2944 1434 2944
C 832 2944 358 2630 358 2227
C 358 2080 486 1952 634 1952
C 787 1952 922 2080 922 2221
C 922 2246 915 2278 909 2323
C 896 2381 890 2432 890 2477
C 890 2650 1094 2790 1350 2790
C 1664 2790 1837 2605 1837 2259
L 1837 1869
C 851 1472 742 1421 467 1178
C 326 1050 237 832 237 621
C 237 218 518 -64 909 -64
C 1190 -64 1453 70 1843 403
C 1875 70 1990 -64 2253 -64
C 2470 -64 2605 13 2829 256
L 2829 423
z
M 1837 783
C 1837 584 1805 526 1670 449
C 1517 359 1338 301 1203 301
C 979 301 800 520 800 796
L 800 822
C 800 1201 1062 1433 1837 1715
L 1837 783
z
" transform="scale(0.015625)"/>
       <path id="NimbusRomNo9L-Regu-74" d="M 1632 2880
L 986 2880
L 986 3622
C 986 3686 979 3706 941 3706
C 896 3648 858 3590 813 3526
C 570 3174 294 2867 192 2841
C 122 2794 83 2748 83 2715
C 83 2695 90 2682 109 2682
L 448 2682
L 448 751
C 448 212 640 -64 1018 -64
C 1331 -64 1574 90 1786 423
L 1702 493
C 1568 333 1459 269 1318 269
C 1082 269 986 443 986 847
L 986 2682
L 1632 2682
L 1632 2880
z
" transform="scale(0.015625)"/>
       <path id="NimbusRomNo9L-Regu-69" d="M 1120 2929
L 128 2579
L 128 2484
L 179 2490
C 256 2502 339 2509 397 2509
C 550 2509 608 2406 608 2125
L 608 640
C 608 179 544 109 102 109
L 102 0
L 1619 0
L 1619 96
C 1197 128 1146 191 1146 650
L 1146 2910
L 1120 2929
z
M 819 4352
C 646 4352 499 4205 499 4026
C 499 3847 640 3699 819 3699
C 1005 3699 1152 3840 1152 4026
C 1152 4205 1005 4352 819 4352
z
" transform="scale(0.015625)"/>
       <path id="NimbusRomNo9L-Regu-76" d="M 3053 2854
L 2163 2854
L 2163 2758
C 2368 2739 2464 2675 2464 2552
C 2464 2488 2451 2424 2426 2359
L 1792 695
L 1139 2340
C 1101 2431 1082 2520 1082 2578
C 1082 2694 1152 2739 1376 2758
L 1376 2854
L 122 2854
L 122 2752
C 365 2752 410 2688 704 2024
L 1472 175
C 1485 137 1504 91 1523 40
C 1562 -76 1600 -128 1638 -128
C 1677 -128 1722 -44 1818 193
L 2637 2257
C 2822 2694 2861 2739 3053 2758
L 3053 2854
z
" transform="scale(0.015625)"/>
       <path id="NimbusRomNo9L-Regu-65" d="M 2611 1053
C 2304 564 2029 378 1619 378
C 1254 378 979 564 794 930
C 678 1174 634 1386 621 1779
L 2592 1779
C 2541 2193 2477 2377 2317 2581
C 2125 2811 1830 2944 1498 2944
C 1178 2944 877 2829 634 2611
C 333 2349 160 1894 160 1370
C 160 486 621 -64 1357 -64
C 1965 -64 2445 315 2714 1008
L 2611 1053
z
M 634 1984
C 704 2479 922 2714 1312 2714
C 1702 2714 1856 2535 1939 1984
L 634 1984
z
" transform="scale(0.015625)"/>
       <path id="NimbusRomNo9L-Regu-66" d="M 1978 2880
L 1190 2880
L 1190 3611
C 1190 3978 1312 4173 1555 4173
C 1690 4173 1779 4110 1894 3927
C 1997 3763 2074 3700 2182 3700
C 2330 3700 2451 3814 2451 3959
C 2451 4188 2170 4352 1786 4352
C 1389 4352 1050 4181 883 3891
C 717 3613 666 3385 659 2880
L 134 2880
L 134 2675
L 659 2675
L 659 656
C 659 185 589 109 128 109
L 128 0
L 1792 0
L 1792 109
C 1267 109 1197 180 1197 661
L 1197 2675
L 1978 2675
L 1978 2880
z
" transform="scale(0.015625)"/>
       <path id="NimbusRomNo9L-Regu-72" d="M 45 2496
C 134 2515 192 2522 269 2522
C 429 2522 486 2419 486 2138
L 486 538
C 486 218 442 173 32 96
L 32 0
L 1568 0
L 1568 102
C 1133 102 1024 199 1024 565
L 1024 2013
C 1024 2219 1299 2541 1472 2541
C 1510 2541 1568 2509 1638 2445
C 1741 2355 1811 2317 1894 2317
C 2048 2317 2144 2426 2144 2605
C 2144 2816 2010 2944 1792 2944
C 1523 2944 1338 2797 1024 2343
L 1024 2931
L 992 2944
C 653 2803 422 2721 45 2599
L 45 2496
z
" transform="scale(0.015625)"/>
       <path id="NimbusRomNo9L-Regu-63" d="M 2547 998
C 2240 550 2010 397 1645 397
C 1062 397 653 909 653 1645
C 653 2304 1005 2758 1523 2758
C 1754 2758 1837 2688 1901 2451
L 1939 2310
C 1990 2131 2106 2016 2240 2016
C 2406 2016 2547 2138 2547 2285
C 2547 2643 2099 2944 1562 2944
C 1248 2944 922 2816 659 2586
C 339 2304 160 1869 160 1363
C 160 531 666 -64 1376 -64
C 1664 -64 1920 38 2150 237
C 2323 390 2445 563 2637 941
L 2547 998
z
" transform="scale(0.015625)"/>
       <path id="NimbusRomNo9L-Regu-6f" d="M 1600 2944
C 768 2944 186 2330 186 1446
C 186 582 781 -64 1587 -64
C 2394 -64 3008 614 3008 1498
C 3008 2336 2419 2944 1600 2944
z
M 1517 2765
C 2054 2765 2432 2150 2432 1274
C 2432 550 2144 115 1664 115
C 1414 115 1178 269 1043 525
C 864 858 762 1306 762 1760
C 762 2368 1062 2765 1517 2765
z
" transform="scale(0.015625)"/>
       <path id="NimbusRomNo9L-Regu-6e" d="M 102 2579
C 141 2598 205 2605 275 2605
C 454 2605 512 2509 512 2195
L 512 608
C 512 243 442 154 115 128
L 115 32
L 1472 32
L 1472 128
C 1146 154 1050 230 1050 461
L 1050 2259
C 1357 2547 1498 2624 1709 2624
C 2022 2624 2176 2426 2176 2003
L 2176 666
C 2176 262 2093 154 1773 128
L 1773 32
L 3104 32
L 3104 128
C 2790 160 2714 237 2714 550
L 2714 2016
C 2714 2618 2432 2976 1958 2976
C 1664 2976 1466 2867 1030 2458
L 1030 2963
L 986 2976
C 672 2861 454 2790 102 2688
L 102 2579
z
" transform="scale(0.015625)"/>
       <path id="NimbusRomNo9L-Regu-73" d="M 2016 2010
L 1990 2880
L 1920 2880
L 1907 2867
C 1850 2822 1843 2816 1818 2816
C 1779 2816 1715 2829 1645 2861
C 1504 2915 1363 2944 1197 2944
C 691 2944 326 2616 326 2154
C 326 1796 531 1539 1075 1231
L 1446 1020
C 1670 892 1779 737 1779 539
C 1779 256 1574 77 1248 77
C 1030 77 832 159 710 298
C 576 455 518 600 435 960
L 333 960
L 333 -39
L 416 -39
C 461 33 486 48 563 48
C 621 48 710 35 858 -2
C 1037 -39 1210 -64 1325 -64
C 1818 -64 2227 308 2227 757
C 2227 1077 2074 1289 1690 1520
L 998 1930
C 819 2033 723 2194 723 2367
C 723 2624 922 2803 1216 2803
C 1581 2803 1773 2583 1920 2010
L 2016 2010
z
" transform="scale(0.015625)"/>
      </defs>
      <use xlink:href="#NimbusRomNo9L-Regu-43" transform="scale(0.996264)"/>
      <use xlink:href="#NimbusRomNo9L-Regu-75" transform="translate(66.450031 0) scale(0.996264)"/>
      <use xlink:href="#NimbusRomNo9L-Regu-6d" transform="translate(116.263232 0) scale(0.996264)"/>
      <use xlink:href="#NimbusRomNo9L-Regu-75" transform="translate(193.771602 0) scale(0.996264)"/>
      <use xlink:href="#NimbusRomNo9L-Regu-6c" transform="translate(243.584802 0) scale(0.996264)"/>
      <use xlink:href="#NimbusRomNo9L-Regu-61" transform="translate(271.279972 0) scale(0.996264)"/>
      <use xlink:href="#NimbusRomNo9L-Regu-74" transform="translate(315.513541 0) scale(0.996264)"/>
      <use xlink:href="#NimbusRomNo9L-Regu-69" transform="translate(343.20871 0) scale(0.996264)"/>
      <use xlink:href="#NimbusRomNo9L-Regu-76" transform="translate(368.41325 0) scale(0.996264)"/>
      <use xlink:href="#NimbusRomNo9L-Regu-65" transform="translate(416.733058 0) scale(0.996264)"/>
      <use xlink:href="#NimbusRomNo9L-Regu-66" transform="translate(485.873227 0) scale(0.996264)"/>
      <use xlink:href="#NimbusRomNo9L-Regu-72" transform="translate(519.048457 0) scale(0.996264)"/>
      <use xlink:href="#NimbusRomNo9L-Regu-61" transform="translate(552.223686 0) scale(0.996264)"/>
      <use xlink:href="#NimbusRomNo9L-Regu-63" transform="translate(596.457255 0) scale(0.996264)"/>
      <use xlink:href="#NimbusRomNo9L-Regu-74" transform="translate(640.690824 0) scale(0.996264)"/>
      <use xlink:href="#NimbusRomNo9L-Regu-69" transform="translate(668.385993 0) scale(0.996264)"/>
      <use xlink:href="#NimbusRomNo9L-Regu-6f" transform="translate(696.081163 0) scale(0.996264)"/>
      <use xlink:href="#NimbusRomNo9L-Regu-6e" transform="translate(745.894363 0) scale(0.996264)"/>
      <use xlink:href="#NimbusRomNo9L-Regu-6f" transform="translate(820.614164 0) scale(0.996264)"/>
      <use xlink:href="#NimbusRomNo9L-Regu-66" transform="translate(870.427365 0) scale(0.996264)"/>
      <use xlink:href="#NimbusRomNo9L-Regu-65" transform="translate(928.509195 0) scale(0.996264)"/>
      <use xlink:href="#NimbusRomNo9L-Regu-76" transform="translate(970.252134 0) scale(0.996264)"/>
      <use xlink:href="#NimbusRomNo9L-Regu-65" transform="translate(1018.571942 0) scale(0.996264)"/>
      <use xlink:href="#NimbusRomNo9L-Regu-6e" transform="translate(1062.80551 0) scale(0.996264)"/>
      <use xlink:href="#NimbusRomNo9L-Regu-74" transform="translate(1112.618711 0) scale(0.996264)"/>
      <use xlink:href="#NimbusRomNo9L-Regu-73" transform="translate(1140.31388 0) scale(0.996264)"/>
     </g>
    </g>
   </g>
   <g id="line2d_11">
    <path d="M 57.6 307.584
L 61.207273 307.584
L 64.814545 307.584
L 68.421818 307.584
L 72.029091 307.584
L 75.636364 307.583999
L 79.243636 307.583997
L 82.850909 307.583992
L 86.458182 307.583975
L 90.065455 307.583931
L 93.672727 307.583815
L 97.28 307.583531
L 100.887273 307.582868
L 104.494545 307.5814
L 108.101818 307.578313
L 111.709091 307.572145
L 115.316364 307.560434
L 118.923636 307.539303
L 122.530909 307.503041
L 126.138182 307.443833
L 129.745455 307.351792
L 133.352727 307.215452
L 136.96 307.022831
L 140.567273 306.762966
L 144.174545 306.427716
L 147.781818 306.013411
L 151.389091 305.521922
L 154.996364 304.960816
L 158.603636 304.342445
L 162.210909 303.682136
L 165.818182 302.995823
L 169.425455 302.297601
L 173.032727 301.597645
L 176.64 300.900838
L 180.247273 300.206323
L 183.854545 299.507988
L 187.461818 298.795788
L 191.069091 298.057569
L 194.676364 297.280963
L 198.283636 296.454795
L 201.890909 295.56957
L 205.498182 294.616843
L 209.105455 293.587688
L 212.712727 292.470882
L 216.32 291.251592
L 219.927273 289.911256
L 223.534545 288.428872
L 227.141818 286.783256
L 230.749091 284.955273
L 234.356364 282.928887
L 237.963636 280.690237
L 241.570909 278.224774
L 245.178182 275.513483
L 248.785455 272.52976
L 252.392727 269.238494
L 256 265.598011
L 259.607273 261.564333
L 263.214545 257.096078
L 266.821818 252.158015
L 270.429091 246.721854
L 274.036364 240.76422
L 277.643636 234.263131
L 281.250909 227.195141
L 284.858182 219.53513
L 288.465455 211.25974
L 292.072727 202.354158
L 295.68 192.820976
L 299.287273 182.689429
L 302.894545 172.023358
L 306.501818 160.926463
L 310.109091 149.543486
L 313.716364 138.056108
L 317.323636 126.672826
L 320.930909 115.613184
L 324.538182 105.08833
L 328.145455 95.281349
L 331.752727 86.331426
L 335.36 78.325143
L 338.967273 71.296223
L 342.574545 65.232671
L 346.181818 60.088311
L 349.789091 55.795128
L 353.396364 52.273507
L 357.003636 49.439027
L 360.610909 47.206071
L 364.218182 45.48951
L 367.825455 44.205886
L 371.432727 43.275014
L 375.04 42.622161
L 378.647273 42.180418
L 382.254545 41.892632
L 385.861818 41.712425
L 389.469091 41.604118
L 393.076364 41.541717
L 396.683636 41.50729
L 400.290909 41.489118
L 403.898182 41.47995
L 407.505455 41.475531
L 411.112727 41.473499
L 414.72 41.472608
" clip-path="url(#p42c8c30151)" style="fill: none; stroke: #0173b2; stroke-width: 1.5; stroke-linecap: square"/>
   </g>
   <g id="line2d_12">
    <path d="M 57.6 307.584
L 61.207273 307.584
L 64.814545 307.584
L 68.421818 307.584
L 72.029091 307.584
L 75.636364 307.584
L 79.243636 307.584
L 82.850909 307.584
L 86.458182 307.584
L 90.065455 307.584
L 93.672727 307.584
L 97.28 307.584
L 100.887273 307.584
L 104.494545 307.584
L 108.101818 307.584
L 111.709091 307.584
L 115.316364 307.584
L 118.923636 307.584
L 122.530909 307.583999
L 126.138182 307.583997
L 129.745455 307.583989
L 133.352727 307.583963
L 136.96 307.583884
L 140.567273 307.58366
L 144.174545 307.58307
L 147.781818 307.58161
L 151.389091 307.578239
L 154.996364 307.570961
L 158.603636 307.556266
L 162.210909 307.528519
L 165.818182 307.479501
L 169.425455 307.398434
L 173.032727 307.272846
L 176.64 307.090402
L 180.247273 306.841517
L 183.854545 306.522031
L 187.461818 306.13499
L 191.069091 305.690602
L 194.676364 305.204063
L 198.283636 304.691681
L 201.890909 304.166432
L 205.498182 303.634296
L 209.105455 303.09248
L 212.712727 302.530037
L 216.32 301.930825
L 219.927273 301.278131
L 223.534545 300.559839
L 227.141818 299.772606
L 230.749091 298.923514
L 234.356364 298.028198
L 237.963636 297.105526
L 241.570909 296.170255
L 245.178182 295.225963
L 248.785455 294.260546
L 252.392727 293.245753
L 256 292.140757
L 259.607273 290.898506
L 263.214545 289.472855
L 266.821818 287.824475
L 270.429091 285.924225
L 274.036364 283.753548
L 277.643636 281.302343
L 281.250909 278.565288
L 284.858182 275.537756
L 288.465455 272.212259
L 292.072727 268.575856
L 295.68 264.608275
L 299.287273 260.27984
L 302.894545 255.548122
L 306.501818 250.352972
L 310.109091 244.61127
L 313.716364 238.214653
L 317.323636 231.034517
L 320.930909 222.937438
L 324.538182 213.81077
L 328.145455 203.593629
L 331.752727 192.304868
L 335.36 180.059126
L 338.967273 167.065185
L 342.574545 153.606607
L 346.181818 140.010297
L 349.789091 126.611826
L 353.396364 113.725653
L 357.003636 101.624775
L 360.610909 90.529789
L 364.218182 80.604217
L 367.825455 71.952417
L 371.432727 64.618159
L 375.04 58.584444
L 378.647273 53.77684
L 382.254545 50.072375
L 385.861818 47.314182
L 389.469091 45.329723
L 393.076364 43.948893
L 396.683636 43.018396
L 400.290909 42.410273
L 403.898182 42.024477
L 407.505455 41.786949
L 411.112727 41.645262
L 414.72 41.563634
" clip-path="url(#p42c8c30151)" style="fill: none; stroke-dasharray: 5.55,2.4; stroke-dashoffset: 0; stroke: #0173b2; stroke-width: 1.5"/>
   </g>
   <g id="line2d_13">
    <path d="M 57.6 307.584
L 61.207273 307.584
L 64.814545 307.584
L 68.421818 307.584
L 72.029091 307.584
L 75.636364 307.584
L 79.243636 307.584
L 82.850909 307.584
L 86.458182 307.584
L 90.065455 307.584
L 93.672727 307.584
L 97.28 307.584
L 100.887273 307.584
L 104.494545 307.584
L 108.101818 307.584
L 111.709091 307.584
L 115.316364 307.584
L 118.923636 307.584
L 122.530909 307.583997
L 126.138182 307.583982
L 129.745455 307.583903
L 133.352727 307.583585
L 136.96 307.582575
L 140.567273 307.580019
L 144.174545 307.574885
L 147.781818 307.566685
L 151.389091 307.556212
L 154.996364 307.545318
L 158.603636 307.535495
L 162.210909 307.526487
L 165.818182 307.516298
L 169.425455 307.502509
L 173.032727 307.483649
L 176.64 307.459853
L 180.247273 307.432923
L 183.854545 307.405826
L 187.461818 307.381321
L 191.069091 307.3605
L 194.676364 307.342637
L 198.283636 307.326005
L 201.890909 307.307763
L 205.498182 307.282825
L 209.105455 307.244037
L 212.712727 307.185096
L 216.32 307.104247
L 219.927273 307.005526
L 223.534545 306.896522
L 227.141818 306.784447
L 230.749091 306.673073
L 234.356364 306.561517
L 237.963636 306.443696
L 241.570909 306.307685
L 245.178182 306.137331
L 248.785455 305.918524
L 252.392727 305.646612
L 256 305.327528
L 259.607273 304.970436
L 263.214545 304.578606
L 266.821818 304.147159
L 270.429091 303.669451
L 274.036364 303.145374
L 277.643636 302.582765
L 281.250909 301.988972
L 284.858182 301.358491
L 288.465455 300.667795
L 292.072727 299.883991
L 295.68 298.981339
L 299.287273 297.951344
L 302.894545 296.797374
L 306.501818 295.519028
L 310.109091 294.101063
L 313.716364 292.516993
L 317.323636 290.743749
L 320.930909 288.773362
L 324.538182 286.607768
L 328.145455 284.235657
L 331.752727 281.610757
L 335.36 278.656885
L 338.967273 275.299673
L 342.574545 271.493158
L 346.181818 267.213736
L 349.789091 262.431437
L 353.396364 257.094308
L 357.003636 251.148795
L 360.610909 244.578899
L 364.218182 237.419452
L 367.825455 229.724028
L 371.432727 221.524675
L 375.04 212.833479
L 378.647273 203.68532
L 382.254545 194.172838
L 385.861818 184.435048
L 389.469091 174.61187
L 393.076364 164.804855
L 396.683636 155.065199
L 400.290909 145.407012
L 403.898182 135.841833
L 407.505455 126.416097
L 411.112727 117.211331
L 414.72 108.298517
" clip-path="url(#p42c8c30151)" style="fill: none; stroke-dasharray: 1.5,2.475; stroke-dashoffset: 0; stroke: #0173b2; stroke-width: 1.5"/>
   </g>
   <g id="line2d_14">
    <path d="M 57.6 307.56471
L 61.207273 307.550276
L 64.814545 307.527328
L 68.421818 307.492375
L 72.029091 307.441339
L 75.636364 307.369848
L 79.243636 307.273684
L 82.850909 307.149347
L 86.458182 306.994649
L 90.065455 306.809224
L 93.672727 306.594845
L 97.28 306.355486
L 100.887273 306.097077
L 104.494545 305.826978
L 108.101818 305.553216
L 111.709091 305.283555
L 115.316364 305.024501
L 118.923636 304.780342
L 122.530909 304.552351
L 126.138182 304.338315
L 129.745455 304.132501
L 133.352727 303.92617
L 136.96 303.708632
L 140.567273 303.468752
L 144.174545 303.196683
L 147.781818 302.88552
L 151.389091 302.532529
L 154.996364 302.139636
L 158.603636 301.713006
L 162.210909 301.26166
L 165.818182 300.795342
L 169.425455 300.32199
L 173.032727 299.845313
L 176.64 299.362986
L 180.247273 298.865931
L 183.854545 298.338903
L 187.461818 297.762403
L 191.069091 297.115587
L 194.676364 296.379596
L 198.283636 295.5406
L 201.890909 294.59183
L 205.498182 293.534056
L 209.105455 292.374324
L 212.712727 291.123124
L 216.32 289.790534
L 219.927273 288.382116
L 223.534545 286.895412
L 227.141818 285.317751
L 230.749091 283.625842
L 234.356364 281.787247
L 237.963636 279.763473
L 241.570909 277.514094
L 245.178182 275.001042
L 248.785455 272.192144
L 252.392727 269.063045
L 256 265.596958
L 259.607273 261.782227
L 263.214545 257.60825
L 266.821818 253.060907
L 270.429091 248.118911
L 274.036364 242.752385
L 277.643636 236.92436
L 281.250909 230.595058
L 284.858182 223.727967
L 288.465455 216.296199
L 292.072727 208.287718
L 295.68 199.708556
L 299.287273 190.584012
L 302.894545 180.958551
L 306.501818 170.895447
L 310.109091 160.477001
L 313.716364 149.805469
L 317.323636 139.004048
L 320.930909 128.216601
L 324.538182 117.604641
L 328.145455 107.340549
L 331.752727 97.596937
L 335.36 88.533293
L 338.967273 80.282107
L 342.574545 72.937156
L 346.181818 66.546383
L 349.789091 61.110764
L 353.396364 56.589107
L 357.003636 52.907402
L 360.610909 49.970424
L 364.218182 47.673247
L 367.825455 45.910825
L 371.432727 44.58472
L 375.04 43.606949
L 378.647273 42.901547
L 382.254545 42.404615
L 385.861818 42.063585
L 389.469091 41.836157
L 393.076364 41.68913
L 396.683636 41.597195
L 400.290909 41.541703
L 403.898182 41.509424
L 407.505455 41.491356
L 411.112727 41.481634
L 414.72 41.476611
" clip-path="url(#p42c8c30151)" style="fill: none; stroke: #de8f05; stroke-width: 1.5; stroke-linecap: square"/>
   </g>
   <g id="line2d_15">
    <path d="M 57.6 307.584
L 61.207273 307.584
L 64.814545 307.584
L 68.421818 307.584
L 72.029091 307.584
L 75.636364 307.584
L 79.243636 307.584
L 82.850909 307.583999
L 86.458182 307.583998
L 90.065455 307.583993
L 93.672727 307.58398
L 97.28 307.583943
L 100.887273 307.583848
L 104.494545 307.583617
L 108.101818 307.58308
L 111.709091 307.581897
L 115.316364 307.579427
L 118.923636 307.574533
L 122.530909 307.565335
L 126.138182 307.548935
L 129.745455 307.521199
L 133.352727 307.476697
L 136.96 307.408961
L 140.567273 307.311141
L 144.174545 307.177098
L 147.781818 307.002758
L 151.389091 306.787434
L 154.996364 306.534653
L 158.603636 306.252098
L 162.210909 305.950393
L 165.818182 305.640834
L 169.425455 305.332468
L 173.032727 305.029206
L 176.64 304.72772
L 180.247273 304.416743
L 183.854545 304.078078
L 187.461818 303.689237
L 191.069091 303.227237
L 194.676364 302.672787
L 198.283636 302.013978
L 201.890909 301.248632
L 205.498182 300.38475
L 209.105455 299.43898
L 212.712727 298.433453
L 216.32 297.391813
L 219.927273 296.335365
L 223.534545 295.280154
L 227.141818 294.23545
L 230.749091 293.203594
L 234.356364 292.180833
L 237.963636 291.158525
L 241.570909 290.124143
L 245.178182 289.061747
L 248.785455 287.951882
L 252.392727 286.771225
L 256 285.492457
L 259.607273 284.084888
L 263.214545 282.5161
L 266.821818 280.754549
L 270.429091 278.772636
L 274.036364 276.549486
L 277.643636 274.072634
L 281.250909 271.338043
L 284.858182 268.3482
L 288.465455 265.10849
L 292.072727 261.622259
L 295.68 257.885157
L 299.287273 253.87942
L 302.894545 249.568856
L 306.501818 244.895479
L 310.109091 239.778935
L 313.716364 234.119909
L 317.323636 227.808352
L 320.930909 220.73658
L 324.538182 212.816081
L 328.145455 203.995531
L 331.752727 194.276558
L 335.36 183.723642
L 338.967273 172.465454
L 342.574545 160.686842
L 346.181818 148.612956
L 349.789091 136.488919
L 353.396364 124.5593
L 357.003636 113.051068
L 360.610909 102.162089
L 364.218182 92.05515
L 367.825455 82.855953
L 371.432727 74.652932
L 375.04 67.497286
L 378.647273 61.402739
L 382.254545 56.345727
L 385.861818 52.267277
L 389.469091 49.07765
L 393.076364 46.664006
L 396.683636 44.900342
L 400.290909 43.658193
L 403.898182 42.816328
L 407.505455 42.268056
L 411.112727 41.925377
L 414.72 41.72006
" clip-path="url(#p42c8c30151)" style="fill: none; stroke-dasharray: 5.55,2.4; stroke-dashoffset: 0; stroke: #de8f05; stroke-width: 1.5"/>
   </g>
   <g id="line2d_16">
    <path d="M 57.6 307.584
L 61.207273 307.584
L 64.814545 307.584
L 68.421818 307.584
L 72.029091 307.584
L 75.636364 307.584
L 79.243636 307.584
L 82.850909 307.584
L 86.458182 307.584
L 90.065455 307.584
L 93.672727 307.583998
L 97.28 307.583991
L 100.887273 307.583957
L 104.494545 307.583833
L 108.101818 307.583449
L 111.709091 307.58244
L 115.316364 307.580181
L 118.923636 307.575816
L 122.530909 307.568382
L 126.138182 307.556859
L 129.745455 307.540012
L 133.352727 307.516212
L 136.96 307.483784
L 140.567273 307.442183
L 144.174545 307.393321
L 147.781818 307.341768
L 151.389091 307.293043
L 154.996364 307.250749
L 158.603636 307.214451
L 162.210909 307.179777
L 165.818182 307.140652
L 169.425455 307.092193
L 173.032727 307.032614
L 176.64 306.963286
L 180.247273 306.887116
L 183.854545 306.806205
L 187.461818 306.720017
L 191.069091 306.624961
L 194.676364 306.515574
L 198.283636 306.386718
L 201.890909 306.235684
L 205.498182 306.063023
L 209.105455 305.871652
L 212.712727 305.664798
L 216.32 305.443844
L 219.927273 305.206913
L 223.534545 304.948448
L 227.141818 304.659653
L 230.749091 304.329605
L 234.356364 303.94716
L 237.963636 303.503804
L 241.570909 302.996897
L 245.178182 302.431553
L 248.785455 301.819073
L 252.392727 301.17146
L 256 300.494584
L 259.607273 299.784667
L 263.214545 299.031223
L 266.821818 298.224784
L 270.429091 297.363353
L 274.036364 296.451981
L 277.643636 295.495581
L 281.250909 294.491158
L 284.858182 293.42603
L 288.465455 292.282913
L 292.072727 291.046791
L 295.68 289.708095
L 299.287273 288.261146
L 302.894545 286.700645
L 306.501818 285.019073
L 310.109091 283.205696
L 313.716364 281.246302
L 317.323636 279.12263
L 320.930909 276.811852
L 324.538182 274.288246
L 328.145455 271.528841
L 331.752727 268.521029
L 335.36 265.266164
L 338.967273 261.773579
L 342.574545 258.045817
L 346.181818 254.063442
L 349.789091 249.779051
L 353.396364 245.123044
L 357.003636 240.016323
L 360.610909 234.384427
L 364.218182 228.170558
L 367.825455 221.345609
L 371.432727 213.913446
L 375.04 205.911829
L 378.647273 197.409632
L 382.254545 188.497881
L 385.861818 179.273161
L 389.469091 169.821136
L 393.076364 160.213684
L 396.683636 150.522604
L 400.290909 140.834612
L 403.898182 131.249786
L 407.505455 121.864295
L 411.112727 112.755521
L 414.72 103.983048
" clip-path="url(#p42c8c30151)" style="fill: none; stroke-dasharray: 1.5,2.475; stroke-dashoffset: 0; stroke: #de8f05; stroke-width: 1.5"/>
   </g>
   <g id="line2d_17">
    <path d="M 57.6 307.572819
L 61.207273 307.564006
L 64.814545 307.549699
L 68.421818 307.527489
L 72.029091 307.494487
L 75.636364 307.447511
L 79.243636 307.383378
L 82.850909 307.299296
L 86.458182 307.193277
L 90.065455 307.064489
L 93.672727 306.913471
L 97.28 306.742146
L 100.887273 306.553609
L 104.494545 306.351729
L 108.101818 306.140606
L 111.709091 305.923989
L 115.316364 305.70474
L 118.923636 305.484432
L 122.530909 305.263169
L 126.138182 305.039666
L 129.745455 304.811604
L 133.352727 304.576181
L 136.96 304.330754
L 140.567273 304.073395
L 144.174545 303.803215
L 147.781818 303.520371
L 151.389091 303.225743
L 154.996364 302.920386
L 158.603636 302.604907
L 162.210909 302.278915
L 165.818182 301.940679
L 169.425455 301.587021
L 173.032727 301.213442
L 176.64 300.814341
L 180.247273 300.383204
L 183.854545 299.912587
L 187.461818 299.393788
L 191.069091 298.816257
L 194.676364 298.166897
L 198.283636 297.429593
L 201.890909 296.585305
L 205.498182 295.612987
L 209.105455 294.491363
L 212.712727 293.201338
L 216.32 291.728617
L 219.927273 290.065998
L 223.534545 288.214834
L 227.141818 286.185293
L 230.749091 283.995207
L 234.356364 281.667504
L 237.963636 279.226405
L 241.570909 276.692809
L 245.178182 274.079545
L 248.785455 271.387355
L 252.392727 268.60252
L 256 265.696869
L 259.607273 262.630426
L 263.214545 259.356354
L 266.821818 255.827249
L 270.429091 252.001417
L 274.036364 247.847775
L 277.643636 243.348331
L 281.250909 238.497809
L 284.858182 233.300714
L 288.465455 227.766712
L 292.072727 221.905551
L 295.68 215.722845
L 299.287273 209.217757
L 302.894545 202.383186
L 306.501818 195.208397
L 310.109091 187.683475
L 313.716364 179.804563
L 317.323636 171.578774
L 320.930909 163.027962
L 324.538182 154.191056
L 328.145455 145.125171
L 331.752727 135.905912
L 335.36 126.627134
L 338.967273 117.39991
L 342.574545 108.34997
L 346.181818 99.61273
L 349.789091 91.325399
L 353.396364 83.616537
L 357.003636 76.594467
L 360.610909 70.3367
L 364.218182 64.882663
L 367.825455 60.231387
L 371.432727 56.344681
L 375.04 53.154971
L 378.647273 50.575998
L 382.254545 48.514094
L 385.861818 46.877992
L 389.469091 45.58578
L 393.076364 44.568526
L 396.683636 43.770912
L 400.290909 43.149731
L 403.898182 42.671319
L 407.505455 42.308857
L 411.112727 42.040156
L 414.72 41.846219
" clip-path="url(#p42c8c30151)" style="fill: none; stroke: #029e73; stroke-width: 1.5; stroke-linecap: square"/>
   </g>
   <g id="line2d_18">
    <path d="M 57.6 307.584
L 61.207273 307.584
L 64.814545 307.583999
L 68.421818 307.583997
L 72.029091 307.583993
L 75.636364 307.583979
L 79.243636 307.583945
L 82.850909 307.583862
L 86.458182 307.583668
L 90.065455 307.583238
L 93.672727 307.582332
L 97.28 307.580512
L 100.887273 307.577033
L 104.494545 307.570691
L 108.101818 307.55967
L 111.709091 307.541395
L 115.316364 307.512464
L 118.923636 307.4687
L 122.530909 307.405377
L 126.138182 307.317638
L 129.745455 307.201061
L 133.352727 307.052291
L 136.96 306.869601
L 140.567273 306.653259
L 144.174545 306.405613
L 147.781818 306.130854
L 151.389091 305.834523
L 154.996364 305.52286
L 158.603636 305.202082
L 162.210909 304.877706
L 165.818182 304.553908
L 169.425455 304.232941
L 173.032727 303.914581
L 176.64 303.59563
L 180.247273 303.269551
L 183.854545 302.926373
L 187.461818 302.553016
L 191.069091 302.134158
L 194.676364 301.653664
L 198.283636 301.096468
L 201.890909 300.450609
L 205.498182 299.709067
L 209.105455 298.870917
L 212.712727 297.941447
L 216.32 296.930999
L 219.927273 295.852602
L 223.534545 294.718792
L 227.141818 293.538295
L 230.749091 292.313465
L 234.356364 291.039255
L 237.963636 289.704212
L 241.570909 288.293389
L 245.178182 286.79251
L 248.785455 285.19221
L 252.392727 283.491065
L 256 281.696419
L 259.607273 279.822607
L 263.214545 277.886967
L 266.821818 275.904697
L 270.429091 273.883916
L 274.036364 271.822238
L 277.643636 269.705635
L 281.250909 267.509703
L 284.858182 265.202771
L 288.465455 262.749844
L 292.072727 260.116286
L 295.68 257.270364
L 299.287273 254.184195
L 302.894545 250.83312
L 306.501818 247.193897
L 310.109091 243.242359
L 313.716364 238.95117
L 317.323636 234.288295
L 320.930909 229.216563
L 324.538182 223.694619
L 328.145455 217.67933
L 331.752727 211.129624
L 335.36 204.011479
L 338.967273 196.303599
L 342.574545 188.00305
L 346.181818 179.13005
L 349.789091 169.731174
L 353.396364 159.880587
L 357.003636 149.67931
L 360.610909 139.252879
L 364.218182 128.747765
L 367.825455 118.32669
L 371.432727 108.162554
L 375.04 98.430529
L 378.647273 89.298055
L 382.254545 80.91322
L 385.861818 73.392897
L 389.469091 66.81274
L 393.076364 61.201222
L 396.683636 56.539251
L 400.290909 52.765636
L 403.898182 49.787317
L 407.505455 47.492181
L 411.112727 45.761973
L 414.72 44.483134
" clip-path="url(#p42c8c30151)" style="fill: none; stroke-dasharray: 5.55,2.4; stroke-dashoffset: 0; stroke: #029e73; stroke-width: 1.5"/>
   </g>
   <g id="line2d_19">
    <path d="M 57.6 307.584
L 61.207273 307.584
L 64.814545 307.584
L 68.421818 307.583998
L 72.029091 307.583988
L 75.636364 307.583948
L 79.243636 307.583813
L 82.850909 307.583427
L 86.458182 307.582504
L 90.065455 307.580662
L 93.672727 307.577567
L 97.28 307.573164
L 100.887273 307.567742
L 104.494545 307.561694
L 108.101818 307.555043
L 111.709091 307.54713
L 115.316364 307.536735
L 118.923636 307.522631
L 122.530909 307.504275
L 126.138182 307.482305
L 129.745455 307.458443
L 133.352727 307.434677
L 136.96 307.412112
L 140.567273 307.390222
L 144.174545 307.36696
L 147.781818 307.339576
L 151.389091 307.30577
L 154.996364 307.264748
L 158.603636 307.217592
L 162.210909 307.166537
L 165.818182 307.113386
L 169.425455 307.057945
L 173.032727 306.997389
L 176.64 306.927039
L 180.247273 306.842296
L 183.854545 306.740543
L 187.461818 306.621568
L 191.069091 306.486235
L 194.676364 306.334913
L 198.283636 306.167355
L 201.890909 305.983955
L 205.498182 305.786488
L 209.105455 305.576572
L 212.712727 305.352376
L 216.32 305.106548
L 219.927273 304.828264
L 223.534545 304.508677
L 227.141818 304.145338
L 230.749091 303.74179
L 234.356364 303.303172
L 237.963636 302.831636
L 241.570909 302.324156
L 245.178182 301.772654
L 248.785455 301.166002
L 252.392727 300.49393
L 256 299.751374
L 259.607273 298.939886
L 263.214545 298.064179
L 266.821818 297.126039
L 270.429091 296.119673
L 274.036364 295.030386
L 277.643636 293.836348
L 281.250909 292.513717
L 284.858182 291.045557
L 288.465455 289.431782
L 292.072727 287.693919
L 295.68 285.869704
L 299.287273 283.998443
L 302.894545 282.104019
L 306.501818 280.184423
L 310.109091 278.213341
L 313.716364 276.152321
L 317.323636 273.965574
L 320.930909 271.628165
L 324.538182 269.123236
L 328.145455 266.432486
L 331.752727 263.530611
L 335.36 260.39141
L 338.967273 257.000922
L 342.574545 253.36363
L 346.181818 249.493422
L 349.789091 245.396134
L 353.396364 241.058027
L 357.003636 236.44792
L 360.610909 231.529106
L 364.218182 226.271327
L 367.825455 220.654624
L 371.432727 214.662919
L 375.04 208.273609
L 378.647273 201.454995
L 382.254545 194.17811
L 385.861818 186.435195
L 389.469091 178.249723
L 393.076364 169.672504
L 396.683636 160.773151
L 400.290909 151.637621
L 403.898182 142.371283
L 407.505455 133.098229
L 411.112727 123.950595
L 414.72 115.051139
" clip-path="url(#p42c8c30151)" style="fill: none; stroke-dasharray: 1.5,2.475; stroke-dashoffset: 0; stroke: #029e73; stroke-width: 1.5"/>
   </g>
   <g id="line2d_20">
    <path d="M 57.6 307.583358
L 61.207273 307.582557
L 64.814545 307.580919
L 68.421818 307.577742
L 72.029091 307.571909
L 75.636364 307.561765
L 79.243636 307.545047
L 82.850909 307.518939
L 86.458182 307.480296
L 90.065455 307.426065
L 93.672727 307.353881
L 97.28 307.26268
L 100.887273 307.153176
L 104.494545 307.027947
L 108.101818 306.891021
L 111.709091 306.746903
L 115.316364 306.59923
L 118.923636 306.449348
L 122.530909 306.295206
L 126.138182 306.130903
L 129.745455 305.947121
L 133.352727 305.73244
L 136.96 305.475329
L 140.567273 305.166448
L 144.174545 304.800774
L 147.781818 304.3791
L 151.389091 303.908574
L 154.996364 303.402114
L 158.603636 302.876797
L 162.210909 302.351496
L 165.818182 301.844218
L 169.425455 301.369602
L 173.032727 300.937013
L 176.64 300.549467
L 180.247273 300.203483
L 183.854545 299.889717
L 187.461818 299.594087
L 191.069091 299.29905
L 194.676364 298.984708
L 198.283636 298.629606
L 201.890909 298.211252
L 205.498182 297.706589
L 209.105455 297.092691
L 212.712727 296.34782
L 216.32 295.452789
L 219.927273 294.392307
L 223.534545 293.155934
L 227.141818 291.738361
L 230.749091 290.139083
L 234.356364 288.36182
L 237.963636 286.414202
L 241.570909 284.308072
L 245.178182 282.060284
L 248.785455 279.693371
L 252.392727 277.235141
L 256 274.716354
L 259.607273 272.166226
L 263.214545 269.606329
L 266.821818 267.044136
L 270.429091 264.467866
L 274.036364 261.844042
L 277.643636 259.118602
L 281.250909 256.221535
L 284.858182 253.074157
L 288.465455 249.597523
L 292.072727 245.720151
L 295.68 241.383411
L 299.287273 236.543571
L 302.894545 231.170472
L 306.501818 225.243863
L 310.109091 218.749196
L 313.716364 211.674808
L 317.323636 204.011916
L 320.930909 195.757893
L 324.538182 186.922233
L 328.145455 177.533866
L 331.752727 167.648129
L 335.36 157.351757
L 338.967273 146.764579
L 342.574545 136.037104
L 346.181818 125.343764
L 349.789091 114.872354
L 353.396364 104.810869
L 357.003636 95.333562
L 360.610909 86.588217
L 364.218182 78.686385
L 367.825455 71.697682
L 371.432727 65.648467
L 375.04 60.524483
L 378.647273 56.276608
L 382.254545 52.828657
L 385.861818 50.086238
L 389.469091 47.945701
L 393.076364 46.302387
L 396.683636 45.057507
L 400.290909 44.123144
L 403.898182 43.425172
L 407.505455 42.904141
L 411.112727 42.514478
L 414.72 42.222526
" clip-path="url(#p42c8c30151)" style="fill: none; stroke: #d55e00; stroke-width: 1.5; stroke-linecap: square"/>
   </g>
   <g id="line2d_21">
    <path d="M 57.6 307.584
L 61.207273 307.584
L 64.814545 307.584
L 68.421818 307.584
L 72.029091 307.584
L 75.636364 307.584
L 79.243636 307.584
L 82.850909 307.583999
L 86.458182 307.583997
L 90.065455 307.583989
L 93.672727 307.583966
L 97.28 307.583903
L 100.887273 307.583743
L 104.494545 307.58336
L 108.101818 307.582506
L 111.709091 307.580723
L 115.316364 307.577246
L 118.923636 307.570908
L 122.530909 307.560094
L 126.138182 307.542802
L 129.745455 307.516835
L 133.352727 307.480104
L 136.96 307.430935
L 140.567273 307.368234
L 144.174545 307.291371
L 147.781818 307.199769
L 151.389091 307.092336
L 154.996364 306.967028
L 158.603636 306.820842
L 162.210909 306.650415
L 165.818182 306.453135
L 169.425455 306.228478
L 173.032727 305.979093
L 176.64 305.711204
L 180.247273 305.434018
L 183.854545 305.158081
L 187.461818 304.89277
L 191.069091 304.64338
L 194.676364 304.408443
L 198.283636 304.177941
L 201.890909 303.933027
L 205.498182 303.647585
L 209.105455 303.291644
L 212.712727 302.83619
L 216.32 302.258509
L 219.927273 301.546877
L 223.534545 300.703335
L 227.141818 299.743698
L 230.749091 298.69464
L 234.356364 297.588551
L 237.963636 296.457519
L 241.570909 295.327963
L 245.178182 294.216996
L 248.785455 293.130913
L 252.392727 292.065404
L 256 291.006719
L 259.607273 289.933058
L 263.214545 288.815838
L 266.821818 287.620996
L 270.429091 286.310784
L 274.036364 284.846465
L 277.643636 283.191933
L 281.250909 281.317713
L 284.858182 279.204346
L 288.465455 276.844096
L 292.072727 274.240324
L 295.68 271.404524
L 299.287273 268.35164
L 302.894545 265.094545
L 306.501818 261.638481
L 310.109091 257.976108
L 313.716364 254.08386
L 317.323636 249.920559
L 320.930909 245.429397
L 324.538182 240.544013
L 328.145455 235.19827
L 331.752727 229.337836
L 335.36 222.930464
L 338.967273 215.971636
L 342.574545 208.483392
L 346.181818 200.50637
L 349.789091 192.087594
L 353.396364 183.268428
L 357.003636 174.077486
L 360.610909 164.5319
L 364.218182 154.647525
L 367.825455 144.455425
L 371.432727 134.019526
L 375.04 123.449624
L 378.647273 112.905134
L 382.254545 102.587596
L 385.861818 92.722886
L 389.469091 83.536525
L 393.076364 75.226884
L 396.683636 67.941357
L 400.290909 61.759938
L 403.898182 56.689159
L 407.505455 52.66723
L 411.112727 49.578865
L 414.72 47.276149
" clip-path="url(#p42c8c30151)" style="fill: none; stroke-dasharray: 5.55,2.4; stroke-dashoffset: 0; stroke: #d55e00; stroke-width: 1.5"/>
   </g>
   <g id="line2d_22">
    <path d="M 57.6 307.584
L 61.207273 307.584
L 64.814545 307.584
L 68.421818 307.584
L 72.029091 307.584
L 75.636364 307.583997
L 79.243636 307.583985
L 82.850909 307.58393
L 86.458182 307.583734
L 90.065455 307.583156
L 93.672727 307.581746
L 97.28 307.57888
L 100.887273 307.573958
L 104.494545 307.566701
L 108.101818 307.557265
L 111.709091 307.54607
L 115.316364 307.533509
L 118.923636 307.51985
L 122.530909 307.505316
L 126.138182 307.490082
L 129.745455 307.474122
L 133.352727 307.457137
L 136.96 307.438706
L 140.567273 307.418368
L 144.174545 307.395461
L 147.781818 307.369036
L 151.389091 307.338255
L 154.996364 307.30311
L 158.603636 307.264684
L 162.210909 307.224457
L 165.818182 307.18306
L 169.425455 307.139551
L 173.032727 307.091858
L 176.64 307.03777
L 180.247273 306.97532
L 183.854545 306.902372
L 187.461818 306.816513
L 191.069091 306.715786
L 194.676364 306.599327
L 198.283636 306.46681
L 201.890909 306.317184
L 205.498182 306.148082
L 209.105455 305.956459
L 212.712727 305.739896
L 216.32 305.497851
L 219.927273 305.232301
L 223.534545 304.947181
L 227.141818 304.646684
L 230.749091 304.333739
L 234.356364 304.009704
L 237.963636 303.674392
L 241.570909 303.324735
L 245.178182 302.952685
L 248.785455 302.545493
L 252.392727 302.089948
L 256 301.577339
L 259.607273 301.004498
L 263.214545 300.370603
L 266.821818 299.673724
L 270.429091 298.910134
L 274.036364 298.075795
L 277.643636 297.168018
L 281.250909 296.18666
L 284.858182 295.135027
L 288.465455 294.019792
L 292.072727 292.848706
L 295.68 291.626431
L 299.287273 290.35037
L 302.894545 289.008084
L 306.501818 287.576957
L 310.109091 286.027606
L 313.716364 284.332422
L 317.323636 282.476222
L 320.930909 280.461481
L 324.538182 278.303658
L 328.145455 276.020079
L 331.752727 273.618793
L 335.36 271.090566
L 338.967273 268.406184
L 342.574545 265.522707
L 346.181818 262.397784
L 349.789091 259.00245
L 353.396364 255.32343
L 357.003636 251.356134
L 360.610909 247.094898
L 364.218182 242.524463
L 367.825455 237.616396
L 371.432727 232.335021
L 375.04 226.649027
L 378.647273 220.534857
L 382.254545 213.966026
L 385.861818 206.90303
L 389.469091 199.302698
L 393.076364 191.14589
L 396.683636 182.463894
L 400.290909 173.346479
L 403.898182 163.92901
L 407.505455 154.365775
L 411.112727 144.799976
L 414.72 135.342273
" clip-path="url(#p42c8c30151)" style="fill: none; stroke-dasharray: 1.5,2.475; stroke-dashoffset: 0; stroke: #d55e00; stroke-width: 1.5"/>
   </g>
   <g id="line2d_23">
    <path d="M 57.6 307.583867
L 61.207273 307.58367
L 64.814545 307.583227
L 68.421818 307.582292
L 72.029091 307.580439
L 75.636364 307.576987
L 79.243636 307.570948
L 82.850909 307.561019
L 86.458182 307.545679
L 90.065455 307.523398
L 93.672727 307.492945
L 97.28 307.453731
L 100.887273 307.406024
L 104.494545 307.350929
L 108.101818 307.290003
L 111.709091 307.224543
L 115.316364 307.154692
L 118.923636 307.07861
L 122.530909 306.992016
L 126.138182 306.888302
L 129.745455 306.759315
L 133.352727 306.59667
L 136.96 306.393345
L 140.567273 306.145152
L 144.174545 305.85175
L 147.781818 305.516911
L 151.389091 305.147998
L 154.996364 304.7548
L 158.603636 304.347999
L 162.210909 303.937617
L 165.818182 303.531638
L 169.425455 303.134924
L 173.032727 302.748353
L 176.64 302.368163
L 180.247273 301.9855
L 183.854545 301.58639
L 187.461818 301.15239
L 191.069091 300.662141
L 194.676364 300.093827
L 198.283636 299.428167
L 201.890909 298.651248
L 205.498182 297.756379
L 209.105455 296.744337
L 212.712727 295.621878
L 216.32 294.398949
L 219.927273 293.085504
L 223.534545 291.688851
L 227.141818 290.212202
L 230.749091 288.654542
L 234.356364 287.011544
L 237.963636 285.276991
L 241.570909 283.444223
L 245.178182 281.507294
L 248.785455 279.461722
L 252.392727 277.304804
L 256 275.035524
L 259.607273 272.654114
L 263.214545 270.161399
L 266.821818 267.5581
L 270.429091 264.844268
L 274.036364 262.018814
L 277.643636 259.078887
L 281.250909 256.018665
L 284.858182 252.827227
L 288.465455 249.485515
L 292.072727 245.962938
L 295.68 242.214557
L 299.287273 238.179899
L 302.894545 233.784177
L 306.501818 228.942218
L 310.109091 223.564795
L 313.716364 217.566637
L 317.323636 210.875096
L 320.930909 203.43846
L 324.538182 195.233156
L 328.145455 186.269493
L 331.752727 176.595906
L 335.36 166.30164
L 338.967273 155.517412
L 342.574545 144.413031
L 346.181818 133.190753
L 349.789091 122.073721
L 353.396364 111.290119
L 357.003636 101.055171
L 360.610909 91.55403
L 364.218182 82.928546
L 367.825455 75.269757
L 371.432727 68.616502
L 375.04 62.95928
L 378.647273 58.247903
L 382.254545 54.40142
L 385.861818 51.318997
L 389.469091 48.890566
L 393.076364 47.006165
L 396.683636 45.563118
L 400.290909 44.470565
L 403.898182 43.651471
L 407.505455 43.042635
L 411.112727 42.593503
L 414.72 42.264435
" clip-path="url(#p42c8c30151)" style="fill: none; stroke: #cc78bc; stroke-width: 1.5; stroke-linecap: square"/>
   </g>
   <g id="line2d_24">
    <path d="M 57.6 307.584
L 61.207273 307.584
L 64.814545 307.584
L 68.421818 307.584
L 72.029091 307.584
L 75.636364 307.584
L 79.243636 307.584
L 82.850909 307.583998
L 86.458182 307.583995
L 90.065455 307.583984
L 93.672727 307.583954
L 97.28 307.583877
L 100.887273 307.583691
L 104.494545 307.583268
L 108.101818 307.582366
L 111.709091 307.580556
L 115.316364 307.577141
L 118.923636 307.57108
L 122.530909 307.560934
L 126.138182 307.544889
L 129.745455 307.520836
L 133.352727 307.486509
L 136.96 307.439595
L 140.567273 307.377757
L 144.174545 307.298531
L 147.781818 307.199171
L 151.389091 307.076598
L 154.996364 306.927685
L 158.603636 306.749953
L 162.210909 306.54258
L 165.818182 306.307336
L 169.425455 306.048935
L 173.032727 305.7744
L 176.64 305.49139
L 180.247273 305.205849
L 183.854545 304.919712
L 187.461818 304.62944
L 191.069091 304.32597
L 194.676364 303.996197
L 198.283636 303.625611
L 201.890909 303.201284
L 205.498182 302.714255
L 209.105455 302.160507
L 212.712727 301.540181
L 216.32 300.855289
L 219.927273 300.106767
L 223.534545 299.292003
L 227.141818 298.40387
L 230.749091 297.43181
L 234.356364 296.364716
L 237.963636 295.194631
L 241.570909 293.919808
L 245.178182 292.545785
L 248.785455 291.083738
L 252.392727 289.54641
L 256 287.942842
L 259.607273 286.273707
L 263.214545 284.528916
L 266.821818 282.688486
L 270.429091 280.726634
L 274.036364 278.618071
L 277.643636 276.344777
L 281.250909 273.901267
L 284.858182 271.296587
L 288.465455 268.552086
L 292.072727 265.695252
L 295.68 262.751255
L 299.287273 259.734865
L 302.894545 256.645361
L 306.501818 253.465992
L 310.109091 250.167647
L 313.716364 246.714677
L 317.323636 243.069975
L 320.930909 239.196961
L 324.538182 235.057692
L 328.145455 230.608158
L 331.752727 225.79314
L 335.36 220.543293
L 338.967273 214.776516
L 342.574545 208.404406
L 346.181818 201.343311
L 349.789091 193.528365
L 353.396364 184.928156
L 357.003636 175.557381
L 360.610909 165.485022
L 364.218182 154.836248
L 367.825455 143.787303
L 371.432727 132.553882
L 375.04 121.374655
L 378.647273 110.492366
L 382.254545 100.13516
L 385.861818 90.500483
L 389.469091 81.743107
L 393.076364 73.967937
L 396.683636 67.227491
L 400.290909 61.523576
L 403.898182 56.81261
L 407.505455 53.014051
L 411.112727 50.021193
L 414.72 47.713217
" clip-path="url(#p42c8c30151)" style="fill: none; stroke-dasharray: 5.55,2.4; stroke-dashoffset: 0; stroke: #cc78bc; stroke-width: 1.5"/>
   </g>
   <g id="line2d_25">
    <path d="M 57.6 307.584
L 61.207273 307.583999
L 64.814545 307.583995
L 68.421818 307.583976
L 72.029091 307.583895
L 75.636364 307.583626
L 79.243636 307.582882
L 82.850909 307.581188
L 86.458182 307.577993
L 90.065455 307.572977
L 93.672727 307.566383
L 97.28 307.559037
L 100.887273 307.551897
L 104.494545 307.545406
L 108.101818 307.539158
L 111.709091 307.532153
L 115.316364 307.523389
L 118.923636 307.512365
L 122.530909 307.499219
L 126.138182 307.484555
L 129.745455 307.469094
L 133.352727 307.453264
L 136.96 307.436847
L 140.567273 307.41889
L 144.174545 307.398073
L 147.781818 307.373443
L 151.389091 307.345055
L 154.996364 307.314019
L 158.603636 307.281771
L 162.210909 307.249008
L 165.818182 307.214962
L 169.425455 307.177409
L 173.032727 307.133141
L 176.64 307.078541
L 180.247273 307.01018
L 183.854545 306.925547
L 187.461818 306.823807
L 191.069091 306.706242
L 194.676364 306.575725
L 198.283636 306.434853
L 201.890909 306.283749
L 205.498182 306.119514
L 209.105455 305.937815
L 212.712727 305.734808
L 216.32 305.507865
L 219.927273 305.255618
L 223.534545 304.977987
L 227.141818 304.675442
L 230.749091 304.347228
L 234.356364 303.990461
L 237.963636 303.601508
L 241.570909 303.178004
L 245.178182 302.718814
L 248.785455 302.222152
L 252.392727 301.684806
L 256 301.10407
L 259.607273 300.480013
L 263.214545 299.813966
L 266.821818 299.102499
L 270.429091 298.331625
L 274.036364 297.477985
L 277.643636 296.518917
L 281.250909 295.444794
L 284.858182 294.263297
L 288.465455 292.991973
L 292.072727 291.646134
L 295.68 290.231808
L 299.287273 288.745919
L 302.894545 287.178882
L 306.501818 285.516154
L 310.109091 283.740051
L 313.716364 281.83335
L 317.323636 279.78217
L 320.930909 277.574665
L 324.538182 275.197365
L 328.145455 272.635816
L 331.752727 269.882278
L 335.36 266.943654
L 338.967273 263.839393
L 342.574545 260.587894
L 346.181818 257.192439
L 349.789091 253.639129
L 353.396364 249.905818
L 357.003636 245.967327
L 360.610909 241.787557
L 364.218182 237.310035
L 367.825455 232.466693
L 371.432727 227.20487
L 375.04 221.509219
L 378.647273 215.399178
L 382.254545 208.906007
L 385.861818 202.04658
L 389.469091 194.808125
L 393.076364 187.152737
L 396.683636 179.043795
L 400.290909 170.481772
L 403.898182 161.525197
L 407.505455 152.282735
L 411.112727 142.887247
L 414.72 133.473211
" clip-path="url(#p42c8c30151)" style="fill: none; stroke-dasharray: 1.5,2.475; stroke-dashoffset: 0; stroke: #cc78bc; stroke-width: 1.5"/>
   </g>
   <g id="line2d_26">
    <path d="M -1 307.584
L 279.31483 307.584
L 279.31483 41.472
" clip-path="url(#p42c8c30151)" style="fill: none; stroke: #000000; stroke-width: 1.5; stroke-linecap: square"/>
   </g>
   <g id="line2d_27">
    <path d="M -1 307.584
L 241.285173 307.584
L 241.285173 254.3616
L 257.438795 254.3616
L 257.438795 201.1392
L 310.503635 201.1392
L 310.503635 147.9168
L 323.472728 147.9168
L 323.472728 94.6944
L 358.536174 94.6944
L 358.536174 41.472
" clip-path="url(#p42c8c30151)" style="fill: none; stroke-dasharray: 5.55,2.4; stroke-dashoffset: 0; stroke: #000000; stroke-width: 1.5"/>
   </g>
   <g id="line2d_28">
    <path d="M -1 307.584
L 224.759154 307.584
L 224.759154 306.488889
L 228.293079 306.488889
L 228.293079 305.393778
L 233.371738 305.393778
L 233.371738 304.298667
L 238.459336 304.298667
L 238.459336 303.203556
L 240.380952 303.203556
L 240.380952 302.108444
L 240.560573 302.108444
L 240.560573 301.013333
L 247.651571 301.013333
L 247.651571 299.918222
L 249.726871 299.918222
L 249.726871 298.823111
L 253.278871 298.823111
L 253.278871 297.728
L 255.875908 297.728
L 255.875908 296.632889
L 266.694556 296.632889
L 266.694556 295.537778
L 269.061155 295.537778
L 269.061155 294.442667
L 271.544568 294.442667
L 271.544568 293.347556
L 272.447979 293.347556
L 272.447979 292.252444
L 282.492839 292.252444
L 282.492839 291.157333
L 282.804215 291.157333
L 282.804215 290.062222
L 284.85757 290.062222
L 284.85757 288.967111
L 288.243997 288.967111
L 288.243997 287.872
L 288.834205 287.872
L 288.834205 286.776889
L 289.524858 286.776889
L 289.524858 285.681778
L 291.993584 285.681778
L 291.993584 284.586667
L 294.393324 284.586667
L 294.393324 283.491556
L 298.506818 283.491556
L 298.506818 282.396444
L 304.369101 282.396444
L 304.369101 281.301333
L 306.190648 281.301333
L 306.190648 280.206222
L 306.982597 280.206222
L 306.982597 279.111111
L 308.263923 279.111111
L 308.263923 278.016
L 309.328632 278.016
L 309.328632 276.920889
L 317.012338 276.920889
L 317.012338 275.825778
L 324.114443 275.825778
L 324.114443 274.730667
L 326.0753 274.730667
L 326.0753 273.635556
L 327.046145 273.635556
L 327.046145 272.540444
L 328.144172 272.540444
L 328.144172 271.445333
L 331.726216 271.445333
L 331.726216 270.350222
L 331.911295 270.350222
L 331.911295 269.255111
L 333.241848 269.255111
L 333.241848 268.16
L 336.153432 268.16
L 336.153432 267.064889
L 336.312568 267.064889
L 336.312568 265.969778
L 337.22758 265.969778
L 337.22758 264.874667
L 337.779626 264.874667
L 337.806171 262.684444
L 338.014145 262.684444
L 338.014145 261.589333
L 338.867532 261.589333
L 338.867532 260.494222
L 341.020083 260.494222
L 341.020083 259.399111
L 341.162488 259.399111
L 341.162488 258.304
L 341.984974 258.304
L 342.074472 256.113778
L 342.263936 256.113778
L 342.263936 255.018667
L 342.806512 255.018667
L 342.806512 253.923556
L 342.972099 253.923556
L 342.972099 252.828444
L 343.34555 252.828444
L 343.34555 251.733333
L 345.887479 251.733333
L 345.923022 249.543111
L 348.782341 249.543111
L 348.856264 247.352889
L 349.237907 247.352889
L 349.237907 246.257778
L 350.335313 246.257778
L 350.335313 245.162667
L 351.293123 245.162667
L 351.293123 244.067556
L 351.685743 244.067556
L 351.685743 242.972444
L 352.043766 242.972444
L 352.043766 241.877333
L 353.111061 241.877333
L 353.116649 239.687111
L 353.463044 239.687111
L 353.463044 238.592
L 353.620944 238.592
L 353.683569 236.401778
L 355.190171 236.401778
L 355.223702 234.211556
L 355.568918 234.211556
L 355.568918 233.116444
L 356.006782 233.116444
L 356.040193 230.926222
L 356.637854 230.926222
L 356.637854 229.831111
L 358.308733 229.831111
L 358.308733 228.736
L 358.958992 228.736
L 359.013409 226.545778
L 359.202615 226.545778
L 359.215513 224.355556
L 359.618085 224.355556
L 359.618085 223.260444
L 360.31588 223.260444
L 360.31588 222.165333
L 360.536264 222.165333
L 360.621375 219.975111
L 361.283253 219.975111
L 361.283253 218.88
L 361.414306 218.88
L 361.414306 217.784889
L 361.940395 217.784889
L 361.940395 216.689778
L 362.373326 216.689778
L 362.373326 215.594667
L 363.110047 215.594667
L 363.110047 214.499556
L 363.2874 214.499556
L 363.2874 213.404444
L 363.443194 213.404444
L 363.443194 212.309333
L 363.577679 212.309333
L 363.577679 211.214222
L 364.303234 211.214222
L 364.305663 209.024
L 364.890443 209.024
L 364.890443 207.928889
L 365.754687 207.928889
L 365.754687 206.833778
L 366.030297 206.833778
L 366.134959 203.548444
L 366.583745 203.548444
L 366.583745 202.453333
L 367.493168 202.453333
L 367.493168 201.358222
L 367.867826 201.358222
L 367.867826 200.263111
L 368.261311 200.263111
L 368.261311 199.168
L 368.37635 199.168
L 368.37635 198.072889
L 369.293319 198.072889
L 369.300471 195.882667
L 370.115793 195.882667
L 370.115793 194.787556
L 370.585051 194.787556
L 370.6004 192.597333
L 371.338549 192.597333
L 371.338549 191.502222
L 373.295018 191.502222
L 373.295018 190.407111
L 374.397593 190.407111
L 374.397593 189.312
L 374.519618 189.312
L 374.519618 188.216889
L 374.819091 188.216889
L 374.819091 187.121778
L 375.10309 187.121778
L 375.179541 184.931556
L 375.944114 184.931556
L 375.944114 183.836444
L 376.194346 183.836444
L 376.211539 181.646222
L 376.415187 181.646222
L 376.415187 180.551111
L 377.222537 180.551111
L 377.222537 179.456
L 379.204539 179.456
L 379.204539 178.360889
L 379.673674 178.360889
L 379.673674 177.265778
L 380.667251 177.265778
L 380.667251 176.170667
L 380.918225 176.170667
L 380.918225 175.075556
L 381.699534 175.075556
L 381.699534 173.980444
L 382.070981 173.980444
L 382.089113 171.790222
L 383.352592 171.790222
L 383.352592 170.695111
L 383.705378 170.695111
L 383.729273 168.504889
L 383.896118 168.504889
L 383.896118 167.409778
L 384.258762 167.409778
L 384.258762 166.314667
L 386.316471 166.314667
L 386.316471 165.219556
L 386.709575 165.219556
L 386.709575 164.124444
L 386.958555 164.124444
L 386.958555 163.029333
L 387.417675 163.029333
L 387.516269 160.839111
L 387.736813 160.839111
L 387.736813 159.744
L 388.699635 159.744
L 388.699635 158.648889
L 388.914047 158.648889
L 388.974737 156.458667
L 389.139392 156.458667
L 389.139392 155.363556
L 389.290576 155.363556
L 389.290576 154.268444
L 389.844637 154.268444
L 389.90495 152.078222
L 390.080559 152.078222
L 390.080559 150.983111
L 390.444172 150.983111
L 390.550863 148.792889
L 390.669572 148.792889
L 390.669572 147.697778
L 391.352447 147.697778
L 391.352447 146.602667
L 392.795173 146.602667
L 392.795173 145.507556
L 393.092181 145.507556
L 393.092181 144.412444
L 393.632966 144.412444
L 393.632966 143.317333
L 394.806371 143.317333
L 394.845275 141.127111
L 394.999567 141.127111
L 394.999567 140.032
L 395.883171 140.032
L 395.883171 138.936889
L 396.54826 138.936889
L 396.54826 137.841778
L 397.123273 137.841778
L 397.124985 135.651556
L 397.588772 135.651556
L 397.606884 133.461333
L 397.741076 133.461333
L 397.741076 132.366222
L 397.858572 132.366222
L 397.912872 130.176
L 398.547747 130.176
L 398.547747 129.080889
L 398.729055 129.080889
L 398.729055 127.985778
L 399.366255 127.985778
L 399.366255 126.890667
L 399.564896 126.890667
L 399.564896 125.795556
L 401.112218 125.795556
L 401.112218 124.700444
L 401.821762 124.700444
L 401.821762 123.605333
L 403.153349 123.605333
L 403.153349 122.510222
L 403.720978 122.510222
L 403.779534 120.32
L 405.921229 120.32
L 405.921229 119.224889
L 406.254756 119.224889
L 406.323046 117.034667
L 406.870044 117.034667
L 406.870044 115.939556
L 407.201161 115.939556
L 407.201161 114.844444
L 408.259817 114.844444
L 408.304436 112.654222
L 408.960119 112.654222
L 408.960119 111.559111
L 409.192643 111.559111
L 409.192643 110.464
L 409.495621 110.464
L 409.495621 109.368889
L 410.001501 109.368889
L 410.001501 108.273778
L 410.14493 108.273778
L 410.14493 107.178667
L 410.353687 107.178667
L 410.353687 106.083556
L 410.78887 106.083556
L 410.78887 104.988444
L 411.674617 104.988444
L 411.686511 102.798222
L 411.826206 102.798222
L 411.826206 101.703111
L 411.956067 101.703111
L 412.030225 98.417778
L 412.509929 98.417778
L 412.509929 97.322667
L 412.772315 97.322667
L 412.772315 96.227556
L 413.430044 96.227556
L 413.530401 94.037333
L 415.312113 94.037333
L 415.312113 92.942222
L 415.669177 92.942222
L 415.669177 91.847111
L 416.052139 91.847111
L 416.052139 90.752
L 416.237678 90.752
L 416.237678 89.656889
L 416.461234 89.656889
L 416.461234 88.561778
L 416.984617 88.561778
L 416.984617 87.466667
L 417.512685 87.466667
L 417.512685 86.371556
L 418.637365 86.371556
L 418.716464 84.181333
L 418.818765 84.181333
L 418.818765 83.086222
L 419.910545 83.086222
L 419.988846 80.896
L 420.106822 80.896
L 420.106822 79.800889
L 420.890178 79.800889
L 420.890178 78.705778
L 421.344241 78.705778
L 421.344241 77.610667
L 421.63393 77.610667
L 421.63393 76.515556
L 422.454585 76.515556
L 422.454585 75.420444
L 423.046368 75.420444
L 423.046368 74.325333
L 423.454955 74.325333
L 423.479369 72.135111
L 424.101501 72.135111
L 424.101501 71.04
L 424.749263 71.04
L 424.749263 69.944889
L 425.470335 69.944889
L 425.470335 68.849778
L 426.824111 68.849778
L 426.824111 67.754667
L 427.428455 67.754667
L 427.428455 66.659556
L 427.745667 66.659556
L 427.745667 65.564444
L 428.465768 65.564444
L 428.465768 64.469333
L 429.746595 64.469333
L 429.746595 63.374222
L 430.202359 63.374222
L 430.202359 62.279111
L 430.468013 62.279111
L 430.494949 60.088889
L 432.525022 60.088889
L 432.525022 58.993778
L 434.900487 58.993778
L 434.900487 57.898667
L 437.152156 57.898667
L 437.152156 56.803556
L 437.456269 56.803556
L 437.456269 55.708444
L 438.875996 55.708444
L 438.939934 53.518222
L 438.98834 53.518222
L 438.98834 52.423111
L 440.153745 52.423111
L 440.153745 51.328
L 440.363552 51.328
L 440.363552 50.232889
L 441.66825 50.232889
L 441.66825 49.137778
L 442.477262 49.137778
L 442.477262 48.042667
L 443.300776 48.042667
L 443.300776 46.947556
L 444.379004 46.947556
L 444.379004 45.852444
L 445.00447 45.852444
L 445.00447 44.757333
L 445.361498 44.757333
L 445.361498 43.662222
L 454.4 43.662222
L 454.4 41.472
L 454.4 41.472
" clip-path="url(#p42c8c30151)" style="fill: none; stroke-dasharray: 1.5,2.475; stroke-dashoffset: 0; stroke: #000000; stroke-width: 1.5"/>
   </g>
   <g id="patch_3">
    <path d="M 57.6 307.584
L 57.6 41.472
" style="fill: none; stroke: #000000; stroke-width: 0.8; stroke-linejoin: miter; stroke-linecap: square"/>
   </g>
   <g id="patch_4">
    <path d="M 414.72 307.584
L 414.72 41.472
" style="fill: none; stroke: #000000; stroke-width: 0.8; stroke-linejoin: miter; stroke-linecap: square"/>
   </g>
   <g id="patch_5">
    <path d="M 57.6 307.584
L 414.72 307.584
" style="fill: none; stroke: #000000; stroke-width: 0.8; stroke-linejoin: miter; stroke-linecap: square"/>
   </g>
   <g id="patch_6">
    <path d="M 57.6 41.472
L 414.72 41.472
" style="fill: none; stroke: #000000; stroke-width: 0.8; stroke-linejoin: miter; stroke-linecap: square"/>
   </g>
   <g id="legend_1">
    <g id="patch_7">
     <path d="M 67.4 231.048044
L 160.389012 231.048044
Q 163.189012 231.048044 163.189012 228.248044
L 163.189012 51.272
Q 163.189012 48.472 160.389012 48.472
L 67.4 48.472
Q 64.6 48.472 64.6 51.272
L 64.6 228.248044
Q 64.6 231.048044 67.4 231.048044
z
" style="fill: #ffffff; opacity: 0.8; stroke: #cccccc; stroke-linejoin: miter"/>
    </g>
    <g id="line2d_29">
     <path d="M 70.2 58.972
L 84.2 58.972
L 98.2 58.972
" style="fill: none; stroke: #000000; stroke-width: 1.5; stroke-linecap: square"/>
    </g>
    <g id="text_13">
     <!-- BNS -->
     <g transform="translate(109.4 63.872) scale(0.14 -0.14)">
      <defs>
       <path id="NimbusRomNo9L-Regu-42" d="M 109 4237
L 109 4096
C 646 4096 723 4026 723 3548
L 723 689
C 723 212 640 128 109 128
L 109 0
L 2246 0
C 2746 0 3200 136 3437 356
C 3667 564 3795 855 3795 1165
C 3795 1451 3680 1710 3482 1897
C 3290 2072 3117 2150 2701 2253
C 3034 2335 3168 2398 3322 2531
C 3482 2671 3578 2903 3578 3163
C 3578 3871 3008 4237 1901 4237
L 109 4237
z
M 1376 2112
C 1997 2112 2291 2080 2522 1982
C 2886 1827 3059 1568 3059 1159
C 3059 809 2925 555 2669 406
C 2464 290 2202 238 1779 238
C 1466 238 1376 296 1376 504
L 1376 2112
z
M 1376 2368
L 1376 3812
C 1376 3944 1421 4001 1517 4001
L 1798 4001
C 2534 4001 2925 3699 2925 3137
C 2925 2646 2586 2368 1984 2368
L 1376 2368
z
" transform="scale(0.015625)"/>
       <path id="NimbusRomNo9L-Regu-4e" d="M 3917 -64
L 3917 3287
C 3917 3669 3981 3905 4102 3987
C 4192 4051 4282 4077 4525 4102
L 4525 4224
L 3021 4224
L 3021 4102
C 3264 4083 3354 4057 3450 4000
C 3578 3911 3635 3681 3635 3286
L 3635 1136
L 1171 4224
L 77 4224
L 77 4102
C 352 4102 442 4051 698 3751
L 698 938
C 698 281 608 159 77 121
L 77 0
L 1581 0
L 1581 134
C 1088 134 979 281 979 928
L 979 3439
L 3808 -64
L 3917 -64
z
" transform="scale(0.015625)"/>
       <path id="NimbusRomNo9L-Regu-53" d="M 2861 4352
L 2726 4352
C 2701 4205 2630 4135 2522 4135
C 2458 4135 2349 4160 2240 4212
C 2003 4301 1766 4352 1562 4352
C 1286 4352 1005 4244 794 4058
C 570 3859 454 3590 454 3256
C 454 2743 736 2385 1453 2006
C 1914 1763 2246 1499 2406 1256
C 2464 1173 2496 1038 2496 884
C 2496 454 2176 160 1709 160
C 1139 160 736 513 416 1296
L 269 1296
L 461 -64
L 602 -64
C 608 57 685 147 781 147
C 851 147 960 122 1082 79
C 1325 -14 1581 -64 1837 -64
C 2573 -64 3142 442 3142 1101
C 3142 1626 2790 2042 1946 2496
C 1274 2868 1005 3149 1005 3495
C 1005 3847 1274 4090 1670 4090
C 1958 4090 2227 3968 2451 3738
C 2650 3533 2739 3367 2842 2989
L 3002 2989
L 2861 4352
z
" transform="scale(0.015625)"/>
      </defs>
      <use xlink:href="#NimbusRomNo9L-Regu-42" transform="scale(0.996264)"/>
      <use xlink:href="#NimbusRomNo9L-Regu-4e" transform="translate(66.450031 0) scale(0.996264)"/>
      <use xlink:href="#NimbusRomNo9L-Regu-53" transform="translate(138.380016 0) scale(0.996264)"/>
     </g>
    </g>
    <g id="line2d_30">
     <path d="M 70.2 78.79156
L 84.2 78.79156
L 98.2 78.79156
" style="fill: none; stroke-dasharray: 5.55,2.4; stroke-dashoffset: 0; stroke: #000000; stroke-width: 1.5"/>
    </g>
    <g id="text_14">
     <!-- NSBH -->
     <g transform="translate(109.4 83.69156) scale(0.14 -0.14)">
      <defs>
       <path id="NimbusRomNo9L-Regu-48" d="M 1338 2304
L 1338 3533
C 1338 3990 1408 4059 1901 4104
L 1901 4224
L 122 4224
L 122 4104
C 614 4059 685 3989 685 3527
L 685 749
C 685 210 621 134 122 134
L 122 0
L 1901 0
L 1901 121
C 1421 159 1338 242 1338 699
L 1338 2022
L 3277 2022
L 3277 757
C 3277 211 3213 134 2714 134
L 2714 0
L 4493 0
L 4493 121
C 4013 159 3930 242 3930 696
L 3930 3529
C 3930 3989 4000 4059 4493 4104
L 4493 4224
L 2714 4224
L 2714 4104
C 3206 4059 3277 3990 3277 3533
L 3277 2304
L 1338 2304
z
" transform="scale(0.015625)"/>
      </defs>
      <use xlink:href="#NimbusRomNo9L-Regu-4e" transform="scale(0.996264)"/>
      <use xlink:href="#NimbusRomNo9L-Regu-53" transform="translate(71.929985 0) scale(0.996264)"/>
      <use xlink:href="#NimbusRomNo9L-Regu-42" transform="translate(127.321662 0) scale(0.996264)"/>
      <use xlink:href="#NimbusRomNo9L-Regu-48" transform="translate(193.771693 0) scale(0.996264)"/>
     </g>
    </g>
    <g id="line2d_31">
     <path d="M 70.2 98.611121
L 84.2 98.611121
L 98.2 98.611121
" style="fill: none; stroke-dasharray: 1.5,2.475; stroke-dashoffset: 0; stroke: #000000; stroke-width: 1.5"/>
    </g>
    <g id="text_15">
     <!-- BBH -->
     <g transform="translate(109.4 103.511121) scale(0.14 -0.14)">
      <use xlink:href="#NimbusRomNo9L-Regu-42" transform="scale(0.996264)"/>
      <use xlink:href="#NimbusRomNo9L-Regu-42" transform="translate(66.450031 0) scale(0.996264)"/>
      <use xlink:href="#NimbusRomNo9L-Regu-48" transform="translate(132.900062 0) scale(0.996264)"/>
     </g>
    </g>
    <g id="patch_8">
     <path d="M 70.2 123.330681
L 98.2 123.330681
L 98.2 113.530681
L 70.2 113.530681
z
" style="fill: #0173b2"/>
    </g>
    <g id="text_16">
     <!-- IR1HL -->
     <g transform="translate(109.4 123.330681) scale(0.14 -0.14)">
      <defs>
       <path id="NimbusRomNo9L-Regu-49" d="M 736 689
C 736 206 653 128 115 128
L 115 0
L 2016 0
L 2016 128
C 1491 128 1389 217 1389 688
L 1389 3542
C 1389 4012 1478 4096 2016 4096
L 2016 4231
L 115 4231
L 115 4096
C 659 4096 736 4026 736 3548
L 736 689
z
" transform="scale(0.015625)"/>
       <path id="NimbusRomNo9L-Regu-52" d="M 4218 121
C 3974 140 3846 205 3661 424
L 2342 2061
C 2771 2143 2963 2219 3174 2388
C 3379 2553 3501 2818 3501 3113
C 3501 3385 3418 3618 3251 3801
C 3008 4059 2477 4224 1875 4224
L 109 4224
L 109 4102
C 589 4051 653 3981 653 3528
L 653 765
C 653 236 589 159 109 121
L 109 0
L 1882 0
L 1882 134
C 1389 134 1306 219 1306 692
L 1306 1984
L 1664 1984
L 3187 0
L 4218 0
L 4218 121
z
M 1306 3762
C 1306 3937 1376 3987 1632 3987
C 2432 3987 2803 3716 2803 3123
C 2803 2807 2669 2542 2438 2423
C 2144 2258 1920 2221 1306 2221
L 1306 3762
z
" transform="scale(0.015625)"/>
       <path id="NimbusRomNo9L-Regu-4c" d="M 3667 1114
C 3558 870 3469 723 3373 614
C 3149 365 2797 250 2266 250
L 1837 250
C 1370 250 1286 288 1286 513
L 1286 3550
C 1286 4007 1376 4096 1882 4096
L 1882 4237
L 77 4237
L 77 4115
C 550 4077 634 3986 634 3536
L 634 681
C 634 230 544 134 77 134
L 77 0
L 3520 0
L 3827 1114
L 3667 1114
z
" transform="scale(0.015625)"/>
      </defs>
      <use xlink:href="#NimbusRomNo9L-Regu-49" transform="scale(0.996264)"/>
      <use xlink:href="#NimbusRomNo9L-Regu-52" transform="translate(33.17523 0) scale(0.996264)"/>
      <use xlink:href="#NimbusRomNo9L-Regu-31" transform="translate(99.625261 0) scale(0.996264)"/>
      <use xlink:href="#NimbusRomNo9L-Regu-48" transform="translate(149.438461 0) scale(0.996264)"/>
      <use xlink:href="#NimbusRomNo9L-Regu-4c" transform="translate(221.368446 0) scale(0.996264)"/>
     </g>
    </g>
    <g id="patch_9">
     <path d="M 70.2 143.150242
L 98.2 143.150242
L 98.2 133.350242
L 70.2 133.350242
z
" style="fill: #de8f05"/>
    </g>
    <g id="text_17">
     <!-- IR1HLV -->
     <g transform="translate(109.4 143.150242) scale(0.14 -0.14)">
      <defs>
       <path id="NimbusRomNo9L-Regu-56" d="M 4461 4231
L 3149 4231
L 3149 4096
C 3501 4096 3616 4026 3616 3846
C 3616 3744 3571 3572 3494 3380
L 2554 1033
L 1587 3199
C 1376 3667 1325 3814 1325 3910
C 1325 4032 1414 4096 1619 4096
C 1645 4096 1715 4096 1805 4109
L 1805 4231
L 102 4231
L 102 4096
C 416 4096 506 4007 781 3439
L 2355 -64
L 2451 -64
L 3872 3521
C 4083 4026 4154 4096 4461 4096
L 4461 4231
z
" transform="scale(0.015625)"/>
      </defs>
      <use xlink:href="#NimbusRomNo9L-Regu-49" transform="scale(0.996264)"/>
      <use xlink:href="#NimbusRomNo9L-Regu-52" transform="translate(33.17523 0) scale(0.996264)"/>
      <use xlink:href="#NimbusRomNo9L-Regu-31" transform="translate(99.625261 0) scale(0.996264)"/>
      <use xlink:href="#NimbusRomNo9L-Regu-48" transform="translate(149.438461 0) scale(0.996264)"/>
      <use xlink:href="#NimbusRomNo9L-Regu-4c" transform="translate(221.368446 0) scale(0.996264)"/>
      <use xlink:href="#NimbusRomNo9L-Regu-56" transform="translate(272.277391 0) scale(0.996264)"/>
     </g>
    </g>
    <g id="patch_10">
     <path d="M 70.2 162.969802
L 98.2 162.969802
L 98.2 153.169802
L 70.2 153.169802
z
" style="fill: #029e73"/>
    </g>
    <g id="text_18">
     <!-- O5a -->
     <g transform="translate(109.4 162.969802) scale(0.14 -0.14)">
      <defs>
       <path id="NimbusRomNo9L-Regu-4f" d="M 2310 4352
C 1088 4352 218 3431 218 2144
C 218 1543 422 960 768 589
C 1139 186 1709 -64 2272 -64
C 3533 -64 4403 832 4403 2119
C 4403 2752 4218 3296 3866 3680
C 3462 4122 2925 4352 2310 4352
z
M 2310 4122
C 2605 4122 2899 4007 3130 3802
C 3475 3488 3674 2887 3674 2125
C 3674 1748 3590 1306 3462 973
C 3405 813 3296 653 3149 506
C 2925 282 2637 167 2298 167
C 2003 167 1715 282 1491 480
C 1158 775 947 1421 947 2132
C 947 2784 1126 3405 1395 3706
C 1645 3981 1958 4122 2310 4122
z
" transform="scale(0.015625)"/>
      </defs>
      <use xlink:href="#NimbusRomNo9L-Regu-4f" transform="scale(0.996264)"/>
      <use xlink:href="#NimbusRomNo9L-Regu-35" transform="translate(71.929985 0) scale(0.996264)"/>
      <use xlink:href="#NimbusRomNo9L-Regu-61" transform="translate(121.743185 0) scale(0.996264)"/>
     </g>
    </g>
    <g id="patch_11">
     <path d="M 70.2 182.789363
L 98.2 182.789363
L 98.2 172.989363
L 70.2 172.989363
z
" style="fill: #d55e00"/>
    </g>
    <g id="text_19">
     <!-- O5b -->
     <g transform="translate(109.4 182.789363) scale(0.14 -0.14)">
      <defs>
       <path id="NimbusRomNo9L-Regu-62" d="M 979 4364
L 947 4377
C 678 4281 506 4230 205 4147
L 19 4096
L 19 3994
C 58 4000 83 4000 128 4000
C 384 4000 442 3942 442 3673
L 442 347
C 442 147 986 -64 1498 -64
C 2342 -64 2995 640 2995 1555
C 2995 2342 2509 2944 1869 2944
C 1478 2944 1107 2714 979 2400
L 979 4364
z
M 979 2061
C 979 2310 1280 2541 1613 2541
C 2112 2541 2432 2042 2432 1261
C 2432 550 2125 141 1600 141
C 1267 141 979 288 979 448
L 979 2061
z
" transform="scale(0.015625)"/>
      </defs>
      <use xlink:href="#NimbusRomNo9L-Regu-4f" transform="scale(0.996264)"/>
      <use xlink:href="#NimbusRomNo9L-Regu-35" transform="translate(71.929985 0) scale(0.996264)"/>
      <use xlink:href="#NimbusRomNo9L-Regu-62" transform="translate(121.743185 0) scale(0.996264)"/>
     </g>
    </g>
    <g id="patch_12">
     <path d="M 70.2 202.608923
L 98.2 202.608923
L 98.2 192.808923
L 70.2 192.808923
z
" style="fill: #cc78bc"/>
    </g>
    <g id="text_20">
     <!-- O5c -->
     <g transform="translate(109.4 202.608923) scale(0.14 -0.14)">
      <use xlink:href="#NimbusRomNo9L-Regu-4f" transform="scale(0.996264)"/>
      <use xlink:href="#NimbusRomNo9L-Regu-35" transform="translate(71.929985 0) scale(0.996264)"/>
      <use xlink:href="#NimbusRomNo9L-Regu-63" transform="translate(121.743185 0) scale(0.996264)"/>
     </g>
    </g>
    <g id="patch_13">
     <path d="M 70.2 222.428483
L 98.2 222.428483
L 98.2 212.628483
L 70.2 212.628483
z
"/>
    </g>
    <g id="text_21">
     <!-- O4 alert -->
     <g transform="translate(109.4 222.428483) scale(0.14 -0.14)">
      <defs>
       <path id="NimbusRomNo9L-Regu-34" d="M 3021 1497
L 2368 1497
L 2368 4352
L 2086 4352
L 77 1497
L 77 1088
L 1875 1088
L 1875 32
L 2368 32
L 2368 1088
L 3021 1088
L 3021 1497
z
M 1869 1497
L 333 1497
L 1869 3698
L 1869 1497
z
" transform="scale(0.015625)"/>
      </defs>
      <use xlink:href="#NimbusRomNo9L-Regu-4f" transform="scale(0.996264)"/>
      <use xlink:href="#NimbusRomNo9L-Regu-34" transform="translate(71.929985 0) scale(0.996264)"/>
      <use xlink:href="#NimbusRomNo9L-Regu-61" transform="translate(146.649786 0) scale(0.996264)"/>
      <use xlink:href="#NimbusRomNo9L-Regu-6c" transform="translate(190.883354 0) scale(0.996264)"/>
      <use xlink:href="#NimbusRomNo9L-Regu-65" transform="translate(218.578524 0) scale(0.996264)"/>
      <use xlink:href="#NimbusRomNo9L-Regu-72" transform="translate(262.812093 0) scale(0.996264)"/>
      <use xlink:href="#NimbusRomNo9L-Regu-74" transform="translate(295.987322 0) scale(0.996264)"/>
     </g>
    </g>
   </g>
  </g>
 </g>
 <defs>
  <clipPath id="p42c8c30151">
   <rect x="57.6" y="41.472" width="357.12" height="266.112"/>
  </clipPath>
 </defs>
</svg>
